<svg width="148" height="22" viewBox="0 0 148 22" fill="none" xmlns="http://www.w3.org/2000/svg">
<g clip-path="url(#clip0_16598_5922)">
<path d="M34.7817 0.048584C31.9364 0.048584 29.2567 1.22254 27.2357 3.35599C25.2254 5.47618 24.1191 8.28394 24.1191 11.2597V21.9999H27.1023V11.2597C27.1023 9.08647 27.9094 7.03924 29.373 5.49387C30.8279 3.95955 32.7478 3.11501 34.7817 3.11501C36.8157 3.11501 38.7355 3.95955 40.1905 5.49387C41.6562 7.03924 42.4612 9.08647 42.4612 11.2597V21.9999H45.4443V11.2597C45.4443 8.28394 44.338 5.47618 42.3278 3.35599C40.3067 1.22254 37.6271 0.048584 34.7817 0.048584Z" fill="black"/>
<path d="M34.7826 10.8132C33.9604 10.8132 33.291 11.5008 33.291 12.3453V21.9978H36.2741V12.3453C36.2741 11.5008 35.6048 10.8132 34.7826 10.8132Z" fill="#FA5E06"/>
<path d="M3.21987 3.29626C1.14288 5.37223 0 8.12472 0 11.0474C0 13.9702 1.14288 16.7226 3.21987 18.7986C5.28395 20.8635 8.01739 21.9999 10.9144 21.9999H21.3015V18.9357H10.9144C8.79869 18.9357 6.80564 18.1066 5.30116 16.6033C3.80745 15.1087 2.98527 13.1367 2.98527 11.0474C2.98527 8.9582 3.80745 6.98614 5.30116 5.49161C6.80564 3.98604 8.80084 3.15919 10.9144 3.15919H21.2994V0.0949707H10.9144C8.01739 0.0949707 5.28395 1.23134 3.21987 3.29626Z" fill="black"/>
<path d="M144.884 3.35379C142.863 1.22255 140.184 0.0463867 137.338 0.0463867C134.493 0.0463867 131.813 1.22034 129.792 3.35379C127.782 5.47398 126.676 8.28174 126.676 11.2575V21.9977H129.659V11.2575C129.659 9.08427 130.466 7.03704 131.93 5.49167C133.385 3.95735 135.304 3.11281 137.338 3.11281C139.372 3.11281 141.292 3.95735 142.747 5.49167C144.213 7.03704 145.018 9.08427 145.018 11.2575V21.9977H148.001V11.2575C148.001 8.28174 146.895 5.47398 144.884 3.35379Z" fill="black"/>
<path d="M137.339 10.8132C136.517 10.8132 135.848 11.5008 135.848 12.3453V22H138.831V12.3453C138.831 11.5008 138.161 10.8132 137.339 10.8132Z" fill="#FA5E06"/>
<path d="M72.4531 3.1128H81.7038V21.9999H84.6869V3.1128H93.8709V0.048584H72.4531V3.1128Z" fill="black"/>
<path d="M66.6505 16.7404L50.3553 0H48.2891V22H51.27V5.26178L67.5652 22H69.6143V0H66.6505V16.7404Z" fill="black"/>
<path d="M120.881 16.7404L104.586 0H102.52V22H105.503V5.26178L121.796 22H123.847V0H120.881V16.7404Z" fill="black"/>
<path d="M99.6847 0H96.6973V22H99.6847V0Z" fill="black"/>
</g>
<defs>
<clipPath id="clip0_16598_5922">
<rect width="148" height="22" fill="white"/>
</clipPath>
</defs>
</svg>
