<svg xmlns="http://www.w3.org/2000/svg" viewBox="0 0 180 62" height="62"><defs><clipPath id="etherfi-logo_svg__a"><path d="M0 0h180v62H0z" style="fill: none;"></path></clipPath></defs><g style="clip-path: url(&quot;#etherfi-logo_svg__a&quot;);"><path d="m51.12 34.28-1.94-7.57a.62.62 0 0 0-.46-.45l-7.5-1.85c-.06-.01-.12-.02-.17-.02a.63.63 0 0 0-.5.17L27.89 37.22l-1.68-6.54a.62.62 0 0 0-.46-.45l-6.44-1.59 12.65-12.65c.07-.07.12-.17.15-.26.06-.12.07-.27.04-.4l-1.94-7.57a.62.62 0 0 0-.46-.45l-7.5-1.85a.63.63 0 0 0-.43.05s-.07.04-.11.07c-.03.02-.07.04-.1.07L.03 27.22l-.06.09c-.14.16-.19.37-.12.58l2.1 7.31c.06.21.22.37.43.43l7.02 2.02 2.02 7.02c.06.21.22.37.43.43l7.05 2.02 2.02 7.05c.06.21.22.37.43.43l7.34 2.11c.06.02.12.02.17.02h.05c.16 0 .32-.06.45-.19l21.6-21.6c.07-.07.12-.17.15-.26.06-.12.07-.27.04-.4Zm-9.68 8.39-1.58-6.15 3.49-3.49 6 1.72zM29.19 54.91l-1.58-6.15 6.32-6.32 6 1.72-10.75 10.75Zm4.87-14.37-1.51-5.26 5.42 1.34-3.91 3.91Zm4.78-3 1.38 5.4-5.27-1.51zm.17-1.95-6.15-1.51 7.9-7.9 1.71 5.95zm-7.67.01 1.71 5.95-6.29 6.29-6.15-1.51zm16.72-8.23 1.58 6.15-5.96-1.71-1.71-5.94zM19.69 45.41l-1.58-6.15 2.28-2.28 6 1.72-6.7 6.7Zm.83-10.32-1.51-5.26 5.42 1.34-3.91 3.91Zm6.15 2.39-5.27-1.51 3.89-3.89zm-7.16-1.38-2.24 2.24-6.15-1.51 6.68-6.68zm-7.07-19.52 1.71 5.95-6.34 6.34-6.15-1.51zm9.36-9.37 1.71 5.95-3.4 3.4-6.15-1.51zm.73 16.43-1.58-6.15 3.44-3.44 6 1.72-7.86 7.86Zm-7.37-2.11-1.51-5.26 5.42 1.34-3.91 3.91Zm4.77-3.01 1.38 5.4-5.27-1.51zm-4.9 4.9 6 1.72-10.8 10.8-1.58-6.15 6.37-6.37ZM29.1 8.41l1.58 6.15-5.96-1.71-1.71-5.94zM1.35 28.58l5.42 1.34-3.91 3.91-1.51-5.26Zm2.39 6.14 3.89-3.89 1.38 5.4zm8.77 9.27-1.71-5.94 6.09 1.5 1.58 6.15zm7.8 3.55 5.42 1.34-3.91 3.91-1.51-5.26Zm2.39 6.14 3.89-3.89 1.38 5.4z" style="fill: rgb(101, 94, 168);"></path><path d="M69.56 43.44c-1.98 0-3.71-.4-5.19-1.19s-2.63-1.87-3.44-3.24c-.82-1.37-1.22-2.94-1.22-4.72s.4-3.36 1.19-4.72a8.6 8.6 0 0 1 3.27-3.24c1.39-.79 2.97-1.19 4.76-1.19s3.28.38 4.64 1.15 2.42 1.84 3.2 3.22 1.17 3.02 1.17 4.91c0 .15 0 .35-.02.59-.01.23-.02.44-.05.62H63.01v-2.77h12.66l-1.67.87c.02-1-.19-1.9-.62-2.69a4.66 4.66 0 0 0-1.79-1.84c-.75-.43-1.65-.65-2.67-.65s-1.9.22-2.69.65-1.4 1.05-1.82 1.85-.64 1.72-.64 2.77v.67c0 1.07.24 2.02.72 2.84a4.9 4.9 0 0 0 2.05 1.92c.89.46 1.92.69 3.1.69 1 0 1.9-.17 2.7-.5s1.51-.82 2.14-1.47l2.27 2.6a8 8 0 0 1-3.05 2.14c-1.21.49-2.6.74-4.15.74Zm8.35-14.59v-3.34h11.88v3.34zm9.08 14.59c-1.96 0-3.47-.51-4.54-1.52s-1.6-2.5-1.6-4.46V21.44h4.14v15.89c0 .85.22 1.5.67 1.97s1.07.7 1.87.7c.92 0 1.67-.25 2.27-.74l1.2 2.97c-.51.4-1.13.7-1.84.9s-1.43.3-2.17.3Zm15.56-18.3c1.45 0 2.72.28 3.82.83 1.1.56 1.98 1.42 2.64 2.57.66 1.16.98 2.64.98 4.44v10.21h-4.17v-9.68c0-1.58-.36-2.76-1.1-3.54s-1.78-1.17-3.14-1.17c-.98 0-1.85.2-2.6.6s-1.34 1-1.75 1.79-.62 1.79-.62 2.99v9.01h-4.14V18.42h4.14V30.2l-.87-1.5c.6-1.14 1.5-2.02 2.69-2.64s2.57-.93 4.12-.93Zm18.8 18.3c-1.99 0-3.71-.4-5.19-1.19s-2.63-1.87-3.44-3.24c-.82-1.37-1.22-2.94-1.22-4.72s.4-3.36 1.19-4.72a8.6 8.6 0 0 1 3.27-3.24c1.39-.79 2.97-1.19 4.76-1.19s3.28.38 4.64 1.15 2.42 1.84 3.2 3.22 1.17 3.02 1.17 4.91c0 .15 0 .35-.02.59-.01.23-.03.44-.05.62H114.8v-2.77h12.65l-1.67.87c.03-1-.19-1.9-.62-2.69s-1.03-1.4-1.79-1.84-1.65-.65-2.67-.65-1.9.22-2.69.65-1.4 1.05-1.82 1.85-.64 1.72-.64 2.77v.67c0 1.07.24 2.02.72 2.84a4.9 4.9 0 0 0 2.05 1.92c.89.46 1.92.69 3.1.69 1 0 1.9-.17 2.7-.5s1.51-.82 2.14-1.47l2.27 2.6a8 8 0 0 1-3.05 2.14c-1.21.49-2.6.74-4.15.74Zm10.24-.24V25.37h3.98v4.91l-.47-1.43c.51-1.2 1.35-2.12 2.5-2.75 1.16-.64 2.57-.95 4.24-.95v3.98a7 7 0 0 0-.47-.05c-.15-.01-.3-.02-.43-.02-1.6 0-2.87.46-3.81 1.37-.93.91-1.4 2.31-1.4 4.17v8.61h-4.14Zm18.1-14.35v-3.34h11.88v3.34zm2.93 14.35V24.41q0-2.835 1.65-4.53c1.1-1.13 2.68-1.69 4.72-1.69.74 0 1.43.08 2.09.23.65.15 1.21.4 1.65.74l-1.17 3.1c-.29-.2-.64-.36-1.03-.5-.4-.14-.81-.2-1.24-.2-.86 0-1.53.24-1.97.72s-.67 1.19-.67 2.12v2.07l.1 1.84V43.2h-4.14Zm14-20.76c-.78 0-1.42-.25-1.92-.74s-.75-1.09-.75-1.81q0-1.005.75-1.74c.75-.735 1.14-.74 1.92-.74s1.42.23 1.92.69.75 1.04.75 1.75-.25 1.32-.74 1.82-1.14.75-1.93.75Zm-2.08 20.76V25.37h4.14V43.2zm-17.74-.68-1.66-2.74a.67.67 0 0 0-.57-.32h-.01a.65.65 0 0 0-.57.35l-1.54 2.78c-.21.38-.21.85 0 1.23l1.54 2.79c.12.21.33.34.57.35.24 0 .46-.12.57-.33l1.65-2.79c.24-.4.24-.9 0-1.3Z" style="fill: currentcolor;"></path></g></svg>