<?xml version="1.0" encoding="utf-8"?>
<!-- Generator: Adobe Illustrator 19.2.1, SVG Export Plug-In . SVG Version: 6.00 Build 0)  -->
<svg version="1.1" id="layer" xmlns="http://www.w3.org/2000/svg" xmlns:xlink="http://www.w3.org/1999/xlink" x="0px" y="0px"
	 viewBox="0 0 172 402" style="enable-background:new 0 0 172 402;" xml:space="preserve">
<style type="text/css">
	.st0{fill:#2D505F;}
	.st1{fill:#79F2A5;stroke:#2D505F;stroke-width:5.3222;}
	.st2{fill:#3399D6;stroke:#2D505F;stroke-width:5.3222;}
	.st3{fill:#40DCFF;}
	.st4{fill:none;stroke:#2D505F;stroke-width:5.3222;}
</style>
<g id="Group-4">
	<polygon id="Polygon-Copy" class="st1" points="150.6,253.8 150.6,362.6 88.7,398.3 26.8,362.6 26.8,253.8 	"/>
	<polygon id="Polygon" class="st2" points="88.7,255.5 150.6,291.2 150.6,362.6 88.7,398.3 26.8,362.6 26.8,291.2 	"/>
	<polygon id="Polygon-Copy-2" class="st3" points="88.7,255.5 150.6,362.6 88.7,398.3 26.8,362.6 	"/>
	<path id="Path-3" class="st4" d="M28.3,291.9l121.3,70.4"/>
	<path id="Path-3-Copy" class="st4" d="M149.7,291.9L28.3,362.3"/>
	<path id="Path-3-Copy-2" class="st4" d="M89,257.1v139.3"/>
	<path id="Path-3-Copy-3" class="st4" d="M88.7,256.2L28.1,362"/>
	<path id="Path-3-Copy-4" class="st4" d="M88.5,255.5L149.7,362"/>
	<polygon id="Polygon-Copy-3" class="st4" points="88.7,255.5 150.6,291.2 150.6,362.6 88.7,398.3 26.8,362.6 26.8,291.2 	"/>
</g>
</svg>
