<?xml version="1.0" encoding="UTF-8"?>
<svg xmlns="http://www.w3.org/2000/svg" xmlns:xlink="http://www.w3.org/1999/xlink" width="600px" height="600px" viewBox="0 0 600 600" version="1.1">
<g id="surface1">
<path style=" stroke:none;fill-rule:nonzero;fill:rgb(0%,0%,0%);fill-opacity:1;" d="M 309.703125 485.992188 L 280.726562 485.992188 C 260.316406 485.992188 243.730469 502.578125 243.730469 522.988281 L 243.730469 563.003906 C 243.730469 583.414062 260.316406 600 280.726562 600 L 309.703125 600 C 330.113281 600 346.699219 583.414062 346.699219 563.003906 L 346.699219 522.988281 C 346.699219 502.519531 330.113281 485.992188 309.703125 485.992188 Z M 309.703125 485.992188 "/>
<path style=" stroke:none;fill-rule:nonzero;fill:rgb(0%,0%,0%);fill-opacity:1;" d="M 105.367188 176.21875 L 158.828125 182.878906 C 175.78125 184.976562 191.875 175.234375 197.980469 159.265625 C 205.6875 139.101562 216.414062 123.195312 230.164062 111.601562 C 249.648438 95.199219 273.882812 86.9375 302.859375 86.9375 C 332.890625 86.9375 356.8125 94.832031 374.570312 110.554688 C 392.328125 126.339844 401.144531 145.207031 401.144531 167.339844 C 401.144531 183.25 396.152344 197.800781 386.160156 210.996094 C 379.6875 219.382812 359.773438 237.015625 326.539062 263.960938 C 293.242188 290.90625 271.105469 315.199219 260.007812 336.777344 C 248.664062 358.851562 244.71875 383.332031 243.730469 407.871094 C 242.867188 428.898438 259.640625 446.410156 280.726562 446.410156 L 310.9375 446.410156 C 330.175781 446.410156 346.085938 431.671875 347.8125 412.558594 C 349.042969 398.808594 351.324219 388.386719 354.777344 381.296875 C 360.574219 369.148438 375.558594 353.117188 399.605469 333.140625 C 446.15625 294.605469 476.492188 264.144531 490.734375 241.703125 C 504.917969 219.320312 512.070312 195.582031 512.070312 170.484375 C 512.070312 125.167969 492.769531 85.398438 454.109375 51.238281 C 415.511719 17.078125 363.472656 0 298.113281 0 C 235.960938 0 185.832031 16.832031 147.605469 50.558594 C 115.050781 79.292969 95.257812 113.328125 88.289062 152.605469 C 86.132812 164.074219 93.960938 174.800781 105.367188 176.21875 Z M 105.367188 176.21875 "/>
</g>
</svg>
