<svg xmlns="http://www.w3.org/2000/svg" width="246" height="247" fill="none"><g clip-path="url(#a)"><path fill="#AEBFC3" d="m123.02 242.95-119.93.07 60-59.98 59.93 59.91Z" style="fill:#aebfc3;fill:color(display-p3 .6824 .749 .7647);fill-opacity:1"/><path fill="#4281A4" d="M242.99 122.98c0 33.14-13.4 63.12-35.12 84.83l-84.88-84.83V3c66.28 0 119.99 53.72 119.99 119.98h.01Z" style="fill:#4281a4;fill:color(display-p3 .2588 .5059 .6431);fill-opacity:1"/><path fill="#6696AE" d="M122.99 3C56.72 3 3 56.72 3 122.98h119.99V3Z" style="fill:#6696ae;fill:color(display-p3 .4 .5882 .6824);fill-opacity:1"/><path fill="#8AAAB8" d="m3 122.98 120.02 119.97h119.92l.05-.04-120-119.93H3Z" style="fill:#8aaab8;fill:color(display-p3 .5412 .6667 .7216);fill-opacity:1"/><path stroke="#F6E8D7" stroke-linecap="round" stroke-linejoin="round" stroke-width="6" d="m123.02 242.95-119.93.07 60-59.98 59.93 59.91Zm119.97-119.97c0 33.14-13.4 63.12-35.12 84.83l-84.88-84.83V3c66.28 0 119.99 53.72 119.99 119.98h.01ZM122.99 3C56.72 3 3 56.72 3 122.98h119.99V3Z" style="stroke:#f6e8d7;stroke:color(display-p3 .9647 .9098 .8431);stroke-opacity:1"/><path stroke="#F6E8D7" stroke-linecap="round" stroke-linejoin="round" stroke-width="6" d="m3 122.98 120.02 119.97h119.92l.05-.04-120-119.93H3Z" style="stroke:#f6e8d7;stroke:color(display-p3 .9647 .9098 .8431);stroke-opacity:1"/></g><defs><clipPath id="a"><path fill="#fff" d="M0 0h245.99v246.02H0z" style="fill:#fff;fill-opacity:1"/></clipPath></defs></svg>