<svg width="1227" height="104" viewBox="0 0 1227 104" fill="none" xmlns="http://www.w3.org/2000/svg">
<g clip-path="url(#clip0_1_21)">
<path d="M232.262 103.545C224.739 103.545 217.215 102.135 209.692 99.3168C202.168 96.4983 195.845 92.7787 190.721 88.1581L202.076 71.4547C206.138 75.1974 210.88 78.2123 216.304 80.4995C221.727 82.7867 227 83.9303 232.124 83.9303C236.647 83.9303 240.489 83.0293 243.651 81.2272C246.813 79.4252 248.394 77.1149 248.394 74.2964C248.394 73.1874 248.174 72.1824 247.736 71.2814C247.297 70.3804 246.559 69.5603 245.52 68.821C244.482 68.0817 243.49 67.4463 242.543 66.915C241.597 66.3836 240.201 65.8291 238.355 65.2516C236.508 64.674 235.02 64.235 233.889 63.9347C232.758 63.6344 231.039 63.207 228.731 62.6525C205.93 57.154 194.529 46.7346 194.529 31.3942C194.529 22.6151 197.991 15.5456 204.914 10.1857C211.838 4.82584 220.954 2.1459 232.262 2.1459C239.509 2.1459 246.144 3.25485 252.167 5.47273C258.19 7.69061 263.094 10.6016 266.879 14.2056L256.633 30.9784C253.771 28.2522 250.101 26.0343 245.624 24.3247C241.147 22.6151 236.647 21.7603 232.124 21.7603C227.739 21.7603 224.139 22.5805 221.323 24.2208C218.507 25.8611 217.1 27.975 217.1 30.5625C217.1 32.0873 217.584 33.4735 218.554 34.721C219.523 35.9686 220.919 37.0313 222.742 37.9092C224.565 38.7872 226.435 39.5265 228.35 40.1271C230.266 40.7278 232.47 41.2823 234.962 41.7905C236.67 42.1602 238.262 42.5414 239.739 42.9341C241.216 43.3269 243.247 43.9738 245.832 44.8748C248.417 45.7758 250.748 46.7461 252.825 47.7858C254.902 48.8254 257.117 50.1885 259.471 51.875C261.825 53.5615 263.798 55.3866 265.391 57.3504C266.983 59.3141 268.31 61.6706 269.372 64.4199C270.433 67.1691 270.964 70.1147 270.964 73.2567C270.964 79.1249 269.256 84.3808 265.841 89.0245C262.425 93.6682 257.786 97.2491 251.925 99.7673C246.063 102.286 239.509 103.545 232.262 103.545ZM392.108 3.87862H414.055V101.812H392.108V62.9297H352.852V101.812H330.836V3.87862H352.852V42.2064H392.108V3.87862ZM499.193 81.0886H544.265V101.812H477.177V3.87862H543.573V24.602H499.193V42.2064H538.865V62.9297H499.193V81.0886ZM660.047 101.812L639.9 71.4901H629.307V101.812H607.29V3.87862H649.731C659.47 3.87862 667.57 6.99752 674.032 13.2353C680.494 19.4731 683.725 27.2819 683.725 36.6617C683.725 46.0415 681.902 52.5804 678.255 57.7323C674.609 62.8843 669.717 66.6616 663.578 69.0643L686.425 101.812H660.047ZM629.307 24.602V52.2916H649.246C652.616 52.2916 655.443 51.1249 657.727 48.7915C660.012 46.4581 661.449 43.1416 661.449 38.4101C661.449 33.6786 660.024 30.4932 657.762 28.1367C655.5 25.7802 652.662 24.602 649.246 24.602H629.307ZM767.325 81.0886H809.049V101.812H745.308V3.87862H767.325V81.0886ZM920.538 99.6634C914.168 102.251 907.36 103.545 900.114 103.545C892.867 103.545 886.036 102.239 879.62 99.6287C873.205 97.0181 867.712 93.4718 863.143 88.9898C858.573 84.5079 854.973 79.1364 852.342 72.8755C849.711 66.6146 848.396 59.9263 848.396 52.8106C848.396 45.6949 849.711 39.0066 852.342 32.7457C854.973 26.4848 858.573 21.1134 863.143 16.6314C867.712 12.1495 873.205 8.61473 879.62 6.0272C886.036 3.43967 892.867 2.1459 900.114 2.1459C909.76 2.1459 918.542 4.35223 926.457 8.76489C934.373 13.1776 940.593 19.2536 945.116 26.9931C949.639 34.7326 951.901 43.3384 951.901 52.8106C951.901 59.9263 950.574 66.6146 947.92 72.8755C945.266 79.1364 941.643 84.5079 937.05 88.9898C932.458 93.4718 926.953 97.0297 920.538 99.6634ZM879.274 73.9498C884.859 79.5407 891.806 82.3362 900.114 82.3362C908.422 82.3362 915.368 79.5292 920.953 73.9152C926.538 68.3012 929.331 61.2663 929.331 52.8106C929.331 44.355 926.538 37.3201 920.953 31.7061C915.368 26.0921 908.422 23.2851 900.114 23.2851C891.806 23.2851 884.859 26.0921 879.274 31.7061C873.689 37.3201 870.897 44.355 870.897 52.8106C870.897 61.2663 873.689 68.3127 879.274 73.9498ZM1043.11 103.545C1035.87 103.545 1029.04 102.239 1022.62 99.6287C1016.21 97.0181 1010.71 93.4718 1006.14 88.9898C1001.57 84.5079 997.974 79.1364 995.343 72.8755C992.712 66.6146 991.396 59.9263 991.396 52.8106C991.396 45.6949 992.712 39.0066 995.343 32.7457C997.974 26.4848 1001.57 21.1134 1006.14 16.6314C1010.71 12.1495 1016.21 8.61473 1022.62 6.0272C1029.04 3.43967 1035.87 2.1459 1043.11 2.1459C1052.21 2.1459 1060.53 4.0981 1068.07 8.0025C1075.62 11.9069 1081.72 17.3014 1086.39 24.1861L1067.35 35.9686C1064.67 32.0411 1061.21 28.9453 1056.96 26.6812C1052.71 24.4171 1048.1 23.2851 1043.11 23.2851C1034.81 23.2851 1027.86 26.0921 1022.27 31.7061C1016.69 37.3201 1013.9 44.355 1013.9 52.8106C1013.9 61.2663 1016.69 68.3012 1022.27 73.9152C1027.86 79.5292 1034.81 82.3362 1043.11 82.3362C1048.15 82.3362 1052.77 81.2157 1057 78.9747C1061.22 76.7337 1064.67 73.6495 1067.35 69.722L1086.39 81.5045C1081.72 88.3892 1075.62 93.7837 1068.07 97.6881C1060.53 101.592 1052.21 103.545 1043.11 103.545ZM1198.34 101.812L1168.7 66.8803L1160.54 76.0984V101.812H1138.52V3.87862H1160.54V46.157L1196.95 3.87862H1224.85L1182.9 51.0086L1227 101.812H1198.34Z" fill="#110F19"/>
<path fill-rule="evenodd" clip-rule="evenodd" d="M57.8181 56.1032L120.454 7.73837C126.879 2.57946 132.982 0 138.763 0C147.436 0 158.036 0 160.927 0C163.818 0 165.263 1.93459 165.263 3.86919C165.263 5.80378 163.818 7.73837 160.927 7.73837C158.036 7.73837 150.327 7.73837 143.582 7.73837C136.836 7.73837 132.982 10.6403 127.2 16.444L57.8181 89.9586C49.4666 99.6316 40.1514 104.307 29.8727 103.984C14.4545 103.501 0 94.7951 0 79.3183C0 64.8072 0 50.296 0 35.7849C0 33.6508 1.73001 31.9208 3.8641 31.9208H53.954C56.0881 31.9208 57.8181 33.6508 57.8181 35.7849V56.1032Z" fill="#110F19"/>
</g>
<defs>
<clipPath id="clip0_1_21">
<rect width="1227" height="104" fill="white"/>
</clipPath>
</defs>
</svg>
