<svg width="110" height="110" viewBox="0 0 110 110" fill="none" xmlns="http://www.w3.org/2000/svg">
<g filter="url(#filter0_f_374_91)">
<path d="M105 55C105 27.3858 82.6142 5 55 5C27.3858 5 5 27.3858 5 55C5 82.6142 27.3858 105 55 105C82.6142 105 105 82.6142 105 55Z" fill="#48A1F8"/>
<path d="M105 55C105 27.3858 82.6142 5 55 5C27.3858 5 5 27.3858 5 55C5 82.6142 27.3858 105 55 105C82.6142 105 105 82.6142 105 55Z" stroke="#FAFFBD" stroke-width="8"/>
</g>
<path d="M103.333 54.9998C103.333 28.3061 81.6938 6.6665 55 6.6665C28.3062 6.6665 6.66666 28.3061 6.66666 54.9998C6.66666 81.6936 28.3062 103.333 55 103.333C81.6938 103.333 103.333 81.6936 103.333 54.9998Z" fill="#48A1F8" stroke="#FCFE00" stroke-width="8"/>
<mask id="mask0_374_91" style="mask-type:luminance" maskUnits="userSpaceOnUse" x="31" y="18" width="49" height="67">
<path d="M79.359 18.3335H31.6667V85.0002H79.359V18.3335Z" fill="white"/>
</mask>
<g mask="url(#mask0_374_91)">
<path d="M36.0257 48.332L35.5128 49.1014C29.6153 58.332 30.8975 70.3834 38.8462 78.0757C43.2052 82.691 49.359 84.9987 55.5128 84.9987C55.5128 84.9987 55.5128 84.9987 36.0257 48.332Z" fill="white"/>
<path opacity="0.6" d="M55.5128 59.3582L36.0257 48.0762C55.5128 84.9992 55.5128 84.9992 55.5128 84.9992C55.5128 77.0505 55.5128 67.8198 55.5128 59.3582Z" fill="#A7D8FB"/>
<path opacity="0.6" d="M75 48.332L75.5128 49.1014C81.4103 58.332 80.1283 70.3834 72.1795 78.0757C67.5642 82.691 61.6667 84.9987 55.5128 84.9987C55.5128 84.9987 55.5128 84.9987 75 48.332Z" fill="#A7D8FB"/>
<path opacity="0.2" d="M55.5128 59.3582L75 48.0762C55.5128 84.9992 55.5128 84.9992 55.5128 84.9992C55.5128 77.0505 55.5128 67.8198 55.5128 59.3582Z" fill="#5DB2F9"/>
<path opacity="0.2" d="M55.5128 34.4893V53.7199L72.436 44.2328L55.5128 34.4893Z" fill="#5DB2F9"/>
<path opacity="0.6" d="M55.5128 34.4893L38.5897 44.2328L55.5128 53.7199V34.4893Z" fill="#A7D8FB"/>
<path d="M55.5128 18.3335L38.5897 44.231L55.5128 34.4873V18.3335Z" fill="white"/>
<path opacity="0.6" d="M55.5128 34.4873L72.436 44.231L55.5128 18.3335V34.4873Z" fill="#A7D8FB"/>
</g>
<defs>
<filter id="filter0_f_374_91" x="0" y="0" width="110" height="110" filterUnits="userSpaceOnUse" color-interpolation-filters="sRGB">
<feFlood flood-opacity="0" result="BackgroundImageFix"/>
<feBlend mode="normal" in="SourceGraphic" in2="BackgroundImageFix" result="shape"/>
<feGaussianBlur stdDeviation="0.5" result="effect1_foregroundBlur_374_91"/>
</filter>
</defs>
</svg>
