<svg width="40" height="40" viewBox="0 0 40 40" fill="none" xmlns="http://www.w3.org/2000/svg">
<circle cx="20" cy="20" r="20" fill="#2570FF"/>
<g clip-path="url(#clip0_550_12306)">
<mask id="mask0_550_12306" style="mask-type:luminance" maskUnits="userSpaceOnUse" x="8" y="9" width="24" height="23">
<path d="M32 9.00098H8V31.3794H32V9.00098Z" fill="white"/>
</mask>
<g mask="url(#mask0_550_12306)">
<path d="M10.8022 24.1231V30.5658C10.8022 30.9625 11.1379 31.1271 11.2423 31.1645C11.3468 31.2094 11.6973 31.3067 12.0106 31.0148L16.8845 26.331C17.2996 25.9321 17.7002 25.5129 18.0012 25.0224C18.1429 24.7918 18.2017 24.6619 18.2017 24.6619C18.5 24.0557 18.5 23.4721 18.209 22.8884C17.7766 22.0204 16.6725 21.1374 15.0091 20.2993L12.1672 21.8857C11.3244 22.3646 10.8022 23.2102 10.8022 24.1231Z" fill="white" fill-opacity="0.8"/>
<path d="M8 9.7934V16.5505C8 17.396 8.5669 18.1443 9.37249 18.3837C12.1174 19.1769 16.8986 20.883 18.0548 23.3898C18.2039 23.719 18.2934 24.0408 18.3235 24.3775C19.0917 22.9782 19.4423 21.3694 19.2782 19.7381C19.0543 17.4259 17.831 15.3233 15.9216 13.9838L9.11141 9.21721C8.99205 9.12742 8.85034 9.08252 8.70862 9.08252C8.58926 9.08252 8.48483 9.10497 8.37295 9.16483C8.14917 9.29204 8 9.52401 8 9.7934Z" fill="white"/>
<path d="M28.9303 24.1231V30.5658C28.9303 30.9625 28.5947 31.1271 28.4901 31.1645C28.3859 31.2094 28.0351 31.3067 27.7219 31.0148L22.7345 26.2221C22.395 25.8957 22.0708 25.5506 21.8151 25.1552C21.6126 24.8422 21.5309 24.6619 21.5309 24.6619C21.2325 24.0557 21.2325 23.4721 21.5233 22.8884C21.956 22.0204 23.0601 21.1374 24.7232 20.2993L27.5652 21.8857C28.4156 22.3646 28.9303 23.2102 28.9303 24.1231Z" fill="white" fill-opacity="0.8"/>
<path d="M31.7373 9.79242V16.5495C31.7373 17.395 31.1702 18.1433 30.3646 18.3828C27.6198 19.1759 22.8386 20.8821 21.6824 23.3888C21.5331 23.7181 21.4436 24.0398 21.4138 24.3766C20.6456 22.9773 20.295 21.3684 20.4591 19.7372C20.6827 17.425 21.906 15.3223 23.8157 13.9828L30.6259 9.21623C30.7452 9.12644 30.8869 9.08154 31.0285 9.08154C31.1479 9.08154 31.2524 9.10399 31.3641 9.16386C31.5879 9.29106 31.7373 9.52304 31.7373 9.79242Z" fill="white"/>
</g>
</g>
<defs>
<clipPath id="clip0_550_12306">
<rect width="24" height="22.3784" fill="white" transform="translate(8 9)"/>
</clipPath>
</defs>
</svg>
