<svg width="250" height="250" viewBox="0 0 250 250" fill="none" xmlns="http://www.w3.org/2000/svg">
<circle cx="125" cy="125" r="125" fill="white"/>
<path fill-rule="evenodd" clip-rule="evenodd" d="M250 125C250 194.036 194.036 250 125 250C55.9644 250 0 194.036 0 125C0 55.9644 55.9644 0 125 0C194.036 0 250 55.9644 250 125ZM117.896 79.5468C110.835 79.5468 105.112 85.2705 105.112 92.3309C105.112 99.3914 110.835 105.115 117.896 105.115V147.729C87.3005 147.729 62.498 122.926 62.498 92.3309C62.498 61.7356 87.3005 36.9332 117.896 36.9332C148.491 36.9332 173.294 61.7356 173.294 92.3309H130.68C130.68 85.2705 124.956 79.5468 117.896 79.5468ZM144.885 160.511C144.885 167.572 139.162 173.295 132.101 173.295C125.041 173.295 119.317 167.572 119.317 160.511H76.7036C76.7036 191.106 101.506 215.909 132.101 215.909C162.697 215.909 187.499 191.106 187.499 160.511C187.499 129.916 162.697 105.113 132.101 105.113V147.727C139.162 147.727 144.885 153.451 144.885 160.511Z" fill="#16A0EE"/>
</svg>
