<svg width="40" height="40" viewBox="0 0 40 40" fill="none" xmlns="http://www.w3.org/2000/svg">
<path d="M20 0C31.0457 0 40 8.9543 40 20C40 31.0457 31.0457 40 20 40C8.9543 40 0 31.0457 0 20C0 8.9543 8.9543 0 20 0ZM21.1367 23.6357C22.2662 23.6359 23.1816 24.5521 23.1816 25.6816C23.1814 26.811 22.2661 27.7264 21.1367 27.7266C20.0072 27.7266 19.091 26.8112 19.0908 25.6816H12.2725C12.2727 30.5767 16.2416 34.5449 21.1367 34.5449C26.0317 34.5447 29.9998 30.5766 30 25.6816C30 20.7865 26.0318 16.8176 21.1367 16.8174V23.6357ZM18.8633 5.9082C13.9683 5.90839 10.0002 9.87651 10 14.7715C10 19.6666 13.9682 23.6355 18.8633 23.6357V16.8174C17.7338 16.8172 16.8184 15.901 16.8184 14.7715C16.8186 13.6421 17.7339 12.7268 18.8633 12.7266C19.9928 12.7266 20.909 13.642 20.9092 14.7715H27.7275C27.7273 9.8764 23.7584 5.9082 18.8633 5.9082Z" fill="url(#paint0_radial_550_12340)"/>
<defs>
<radialGradient id="paint0_radial_550_12340" cx="0" cy="0" r="1" gradientUnits="userSpaceOnUse" gradientTransform="translate(7 1.33142e-06) rotate(71.7371) scale(52.6522)">
<stop stop-color="#FFBFFF"/>
<stop offset="1" stop-color="#4F68F7"/>
</radialGradient>
</defs>
</svg>
