<svg xmlns="http://www.w3.org/2000/svg" width="82" height="24" viewBox="0 0 82 24" fill="none">
  <g clip-path="url(#clip0_15763_2974)">
    <path d="M77.6052 15.3529C75.7915 15.3529 74.3311 13.754 74.3311 11.8007C74.3311 9.8473 75.808 8.24839 77.6052 8.24839C79.4024 8.24839 80.8803 9.8473 80.8803 11.8007C80.8803 13.754 79.42 15.3529 77.6052 15.3529ZM80.8958 7.3106V8.73174C80.0928 7.74728 78.9208 7.13281 77.6052 7.13281C75.1971 7.13281 73.2542 9.21618 73.2542 11.784C73.2542 14.3518 75.2126 16.4341 77.6052 16.4341C78.9219 16.4341 80.0939 15.8207 80.8958 14.8351V16.2562H81.9717V7.3106H80.8958Z" fill="#FAFFFA"/>
    <path d="M69.081 8.98582V7.3058H68.0051V16.2526H69.081V11.9081C69.081 10.2936 70.1879 8.87249 71.7299 8.51693C72.1154 8.43582 72.5329 8.38692 72.9991 8.38692V7.30469C72.4689 7.30469 71.9552 7.35246 71.5068 7.46579C70.5281 7.70803 69.693 8.24025 69.0832 8.98471H69.0822L69.081 8.98582Z" fill="#FAFFFA"/>
    <path d="M62.2911 15.3518C60.3326 15.3518 58.7596 13.753 58.7596 11.7996C58.7596 9.84625 60.3492 8.24734 62.2911 8.24734C64.2329 8.24734 65.8226 9.84625 65.8226 11.7996C65.8226 13.753 64.2496 15.3518 62.2911 15.3518ZM62.2911 7.14844C59.7395 7.14844 57.6672 9.2318 57.6672 11.7985C57.6672 14.3652 59.7383 16.4497 62.2911 16.4497C64.8439 16.4497 66.9138 14.3663 66.9138 11.7985C66.9138 9.23069 64.8427 7.14844 62.2911 7.14844Z" fill="#FAFFFA"/>
    <path d="M54.1512 8.38814H56.9602V7.3059H54.1512V5.32031H53.0753V7.3059H51.8547V8.38814H53.0753V16.2526H56.9602V15.1705H54.1512V8.38925V8.38814Z" fill="#FAFFFA"/>
    <path d="M46.7678 8.98582V7.3058H45.6919V16.2526H46.7678V11.9081C46.7678 10.2936 47.8745 8.87249 49.4165 8.51693C49.802 8.43582 50.2197 8.38692 50.6858 8.38692V7.30469C50.1556 7.30469 49.642 7.35246 49.1935 7.46579C48.2137 7.70803 47.3798 8.24025 46.7688 8.98471L46.7678 8.98582Z" fill="#FAFFFA"/>
    <path d="M40.0731 8.23737C41.7753 8.23737 43.2036 9.54629 43.4598 11.2408H36.7018C36.9426 9.52851 38.372 8.23737 40.0731 8.23737ZM40.0731 15.3275C38.3709 15.3275 36.9426 14.0185 36.6863 12.3241H44.5689V11.7908C44.5689 9.23962 42.5451 7.15625 40.0742 7.15625C37.6032 7.15625 35.5796 9.23962 35.5796 11.7908C35.5796 14.3419 37.6032 16.4253 40.0742 16.4253C41.8559 16.4253 43.4609 15.343 44.1834 13.6641H42.9793C42.3541 14.6964 41.2627 15.3441 40.0742 15.3275H40.0731Z" fill="#FAFFFA"/>
    <path d="M30.4407 15.3352C28.5618 15.3352 27.0219 13.7364 27.0219 11.783C27.0219 9.82959 28.5629 8.23068 30.4407 8.23068C31.6613 8.23068 32.7361 8.89181 33.3458 9.89404H34.5498C33.8441 8.27956 32.2699 7.14844 30.4407 7.14844C27.9675 7.14844 25.946 9.2318 25.946 11.783C25.946 14.3341 27.9698 16.4175 30.4407 16.4175C32.2225 16.4175 33.8274 15.3363 34.5498 13.6719H33.3458C32.7361 14.7052 31.6448 15.3352 30.4407 15.3352Z" fill="#FAFFFA"/>
    <path fill-rule="evenodd" clip-rule="evenodd" d="M0.380565 0H0.0314941V0.351064V6.15033H0.380577L0.209462 6.45634L5.02321 9.17885L0.0802618 17.5677L0.380497 17.7467L0.551712 18.0527L10.2815 12.5481V23.5445H10.9796V12.5488L20.7087 18.0527L20.8798 17.7467L21.1801 17.5677L16.2377 9.17971L21.0515 6.45633L20.8804 6.15033H21.2289V0.351064V0H20.8798H0.380565ZM19.9151 16.7982L15.629 9.52403L11.3429 11.9488L19.9151 16.7982ZM5.37921 8.57465L0.729637 5.945V0.702128H10.0179L5.37921 8.57465ZM1.34517 16.7982L5.63189 9.5231L9.91885 11.9477L1.34517 16.7982ZM5.98789 8.9189L10.2815 11.3472V1.63208L5.98789 8.9189ZM15.273 8.91984L10.9796 11.3487V1.63337L15.273 8.91984ZM20.5307 5.94542L15.8816 8.57552L11.2424 0.702128H20.5307V5.94542Z" fill="#FAFFFA"/>
    <path d="M20.8799 6.15625V17.7526L10.632 23.5505L0.380615 17.7526V6.15625" stroke="#FAFFFA" stroke-width="0.702128" stroke-miterlimit="10"/>
    <path d="M0.380615 8.15602V6.15083L10.6306 0.351562" stroke="#FAFFFA" stroke-width="0.702128" stroke-miterlimit="10"/>
    <path d="M20.8801 8.15601V6.15083L10.6301 0.351562" stroke="#FAFFFA" stroke-width="0.702128" stroke-miterlimit="10"/>
  </g>
  <defs>
    <clipPath id="clip0_15763_2974">
      <rect width="82" height="24" fill="white"/>
    </clipPath>
  </defs>
</svg>