<svg width="66" height="42" viewBox="0 0 66 42" fill="none" xmlns="http://www.w3.org/2000/svg">
<rect x="24.5" y="0.5" width="41" height="41" rx="20.5" fill="#D9D9D9" stroke="white"/>
<g clip-path="url(#clip0_15763_3644)">
<path d="M45 41C56.0457 41 65 32.0457 65 21C65 9.9543 56.0457 1 45 1C33.9543 1 25 9.9543 25 21C25 32.0457 33.9543 41 45 41Z" fill="#627EEA"/>
<path d="M45.6226 6V17.0875L54.9938 21.275L45.6226 6Z" fill="white" fill-opacity="0.602"/>
<path d="M45.6225 6L36.25 21.275L45.6225 17.0875V6Z" fill="white"/>
<path d="M45.6226 28.4634V35.9972L55.0001 23.0234L45.6226 28.4634Z" fill="white" fill-opacity="0.602"/>
<path d="M45.6225 35.9972V28.4622L36.25 23.0234L45.6225 35.9972Z" fill="white"/>
<path d="M45.6226 26.72L54.9938 21.2787L45.6226 17.0938V26.72Z" fill="white" fill-opacity="0.2"/>
<path d="M36.25 21.2787L45.6225 26.72V17.0938L36.25 21.2787Z" fill="white" fill-opacity="0.602"/>
</g>
<rect x="0.5" y="0.5" width="41" height="41" rx="20.5" fill="#48A1F8" stroke="white"/>
<g clip-path="url(#clip1_15763_3644)">
<path d="M12.8681 18.1484L12.6484 18.4781C10.1209 22.4342 10.6703 27.599 14.0769 30.8957C15.9451 32.8737 18.5824 33.8627 21.2198 33.8627C21.2198 33.8627 21.2198 33.8627 12.8681 18.1484Z" fill="white"/>
<path opacity="0.6" d="M21.2198 22.8742L12.8682 18.0391C21.2198 33.8632 21.2198 33.8632 21.2198 33.8632C21.2198 30.4566 21.2198 26.5006 21.2198 22.8742Z" fill="#A7D8FB"/>
<path opacity="0.6" d="M29.5714 18.1484L29.7912 18.4781C32.3186 22.4342 31.7692 27.599 28.3626 30.8957C26.3846 32.8737 23.8571 33.8627 21.2197 33.8627C21.2197 33.8627 21.2197 33.8627 29.5714 18.1484Z" fill="#A7D8FB"/>
<path opacity="0.2" d="M21.2197 22.8742L29.5714 18.0391C21.2197 33.8632 21.2197 33.8632 21.2197 33.8632C21.2197 30.4566 21.2197 26.5006 21.2197 22.8742Z" fill="#5DB2F9"/>
<path opacity="0.2" d="M21.2197 12.2109V20.4527L28.4725 16.3868L21.2197 12.2109Z" fill="#5DB2F9"/>
<path opacity="0.6" d="M21.2195 12.2109L13.9668 16.3868L21.2195 20.4527V12.2109Z" fill="#A7D8FB"/>
<path d="M21.2195 5.28906L13.9668 16.388L21.2195 12.2121V5.28906Z" fill="white"/>
<path opacity="0.6" d="M21.2197 12.2121L28.4725 16.388L21.2197 5.28906V12.2121Z" fill="#A7D8FB"/>
</g>
<defs>
<clipPath id="clip0_15763_3644">
<rect width="40" height="40" fill="white" transform="translate(25 1)"/>
</clipPath>
<clipPath id="clip1_15763_3644">
<rect width="20.4396" height="28.5714" fill="white" transform="translate(11 5.28906)"/>
</clipPath>
</defs>
</svg>
