<?xml version="1.0" encoding="UTF-8"?>
<!DOCTYPE svg PUBLIC "-//W3C//DTD SVG 1.1//EN" "http://www.w3.org/Graphics/SVG/1.1/DTD/svg11.dtd">
<svg xmlns="http://www.w3.org/2000/svg" version="1.1" width="348px" height="320px" style="shape-rendering:geometricPrecision; text-rendering:geometricPrecision; image-rendering:optimizeQuality; fill-rule:evenodd; clip-rule:evenodd" xmlns:xlink="http://www.w3.org/1999/xlink">
<g><path style="opacity:0.999" fill="#fdfdfd" d="M 152.5,-0.5 C 165.833,-0.5 179.167,-0.5 192.5,-0.5C 200.622,0.520809 208.622,2.18748 216.5,4.5C 215.833,4.5 215.167,4.5 214.5,4.5C 207.172,3.50178 199.838,2.50178 192.5,1.5C 192.5,17.8333 192.5,34.1667 192.5,50.5C 242.578,60.7446 273.411,90.7446 285,140.5C 290.587,191.829 271.42,230.663 227.5,257C 216.363,262.546 204.696,266.379 192.5,268.5C 192.5,284.833 192.5,301.167 192.5,317.5C 193.5,317.5 194.5,317.5 195.5,317.5C 193.5,318.167 191.5,318.833 189.5,319.5C 179.167,319.5 168.833,319.5 158.5,319.5C 156.5,318.833 154.5,318.167 152.5,317.5C 153.496,301.342 153.83,285.009 153.5,268.5C 110.853,260.355 81.6866,236.022 66,195.5C 50.7105,140.594 66.5438,97.0938 113.5,65C 125.669,57.8885 138.669,53.0552 152.5,50.5C 152.5,34.1667 152.5,17.8333 152.5,1.5C 146.866,2.42659 141.199,3.09325 135.5,3.5C 141.144,2.05947 146.811,0.726141 152.5,-0.5 Z"/></g>
<g><path style="opacity:1" fill="#020202" d="M 214.5,4.5 C 270.113,18.4526 310.447,51.1192 335.5,102.5C 336.011,107.709 337.678,112.376 340.5,116.5C 341.724,124.381 343.391,132.048 345.5,139.5C 345.5,150.167 345.5,160.833 345.5,171.5C 344.473,181.609 342.806,191.609 340.5,201.5C 338.928,204.215 337.928,207.215 337.5,210.5C 335.733,212.792 334.733,215.458 334.5,218.5C 332.674,223.484 330.341,228.151 327.5,232.5C 325.75,233.659 324.75,235.326 324.5,237.5C 323.094,237.973 322.427,238.973 322.5,240.5C 321.094,240.973 320.427,241.973 320.5,243.5C 319.094,243.973 318.427,244.973 318.5,246.5C 316.984,249.533 314.984,252.2 312.5,254.5C 310.738,255.262 309.738,256.596 309.5,258.5C 308.167,260.5 306.5,262.167 304.5,263.5C 301.5,265.833 298.833,268.5 296.5,271.5C 295.167,273.5 293.5,275.167 291.5,276.5C 289.973,276.427 288.973,277.094 288.5,278.5C 288.167,279.5 287.5,280.167 286.5,280.5C 284.973,280.427 283.973,281.094 283.5,282.5C 283.5,283.167 283.167,283.5 282.5,283.5C 280.973,283.427 279.973,284.094 279.5,285.5C 279.027,286.906 278.027,287.573 276.5,287.5C 274.973,287.427 273.973,288.094 273.5,289.5C 271.371,291.95 268.704,293.617 265.5,294.5C 263.326,294.75 261.659,295.75 260.5,297.5C 258.819,299.008 256.819,300.008 254.5,300.5C 251.759,300.707 249.426,301.707 247.5,303.5C 247.158,304.338 246.492,304.672 245.5,304.5C 242.458,304.733 239.792,305.733 237.5,307.5C 233.216,308.261 229.216,309.595 225.5,311.5C 215.898,314.887 205.898,316.887 195.5,317.5C 194.5,317.5 193.5,317.5 192.5,317.5C 192.5,301.167 192.5,284.833 192.5,268.5C 204.696,266.379 216.363,262.546 227.5,257C 271.42,230.663 290.587,191.829 285,140.5C 273.411,90.7446 242.578,60.7446 192.5,50.5C 192.5,34.1667 192.5,17.8333 192.5,1.5C 199.838,2.50178 207.172,3.50178 214.5,4.5 Z"/></g>
<g><path style="opacity:0.991" fill="#000000" d="M 152.5,317.5 C 100.946,311.65 59.4461,288.316 28,247.5C 11.8558,224.228 2.35584,198.562 -0.5,170.5C -0.5,163.5 -0.5,156.5 -0.5,149.5C 5.46491,97.2126 30.4649,56.8792 74.5,28.5C 76.0269,28.573 77.0269,27.9063 77.5,26.5C 77.8417,25.6618 78.5084,25.3284 79.5,25.5C 81.0269,25.573 82.0269,24.9063 82.5,23.5C 83.5137,22.3263 84.847,21.6596 86.5,21.5C 90.8491,19.9922 94.8491,17.9922 98.5,15.5C 107.342,12.7958 116.009,9.79575 124.5,6.5C 128.446,6.11837 132.112,5.11837 135.5,3.5C 141.199,3.09325 146.866,2.42659 152.5,1.5C 152.5,17.8333 152.5,34.1667 152.5,50.5C 138.669,53.0552 125.669,57.8885 113.5,65C 66.5438,97.0938 50.7105,140.594 66,195.5C 81.6866,236.022 110.853,260.355 153.5,268.5C 153.83,285.009 153.496,301.342 152.5,317.5 Z"/></g>
<g><path style="opacity:0.314" fill="#f1f1f1" d="M 135.5,3.5 C 132.112,5.11837 128.446,6.11837 124.5,6.5C 124.167,6.5 123.833,6.5 123.5,6.5C 127.163,4.58413 131.163,3.58413 135.5,3.5 Z"/></g>
<g><path style="opacity:1" fill="#a9a9a9" d="M 123.5,6.5 C 123.833,6.5 124.167,6.5 124.5,6.5C 116.009,9.79575 107.342,12.7958 98.5,15.5C 106.254,11.1356 114.587,8.13556 123.5,6.5 Z"/></g>
<g><path style="opacity:0.498" fill="#b8b8b8" d="M 98.5,15.5 C 94.8491,17.9922 90.8491,19.9922 86.5,21.5C 89.9024,18.4654 93.9024,16.4654 98.5,15.5 Z"/></g>
<g><path style="opacity:0.937" fill="#989898" d="M 82.5,23.5 C 82.0269,24.9063 81.0269,25.573 79.5,25.5C 79.9731,24.0937 80.9731,23.427 82.5,23.5 Z"/></g>
<g><path style="opacity:0.875" fill="#8d8d8d" d="M 77.5,26.5 C 77.0269,27.9063 76.0269,28.573 74.5,28.5C 74.9731,27.0937 75.9731,26.427 77.5,26.5 Z"/></g>
<g><path style="opacity:0.5" fill="#eaeaea" d="M 214.5,4.5 C 215.167,4.5 215.833,4.5 216.5,4.5C 264.361,15.5444 301.194,41.8777 327,83.5C 330.4,89.6294 333.234,95.9627 335.5,102.5C 310.447,51.1192 270.113,18.4526 214.5,4.5 Z"/></g>
<g><path style="opacity:1" fill="#bbbbbb" d="M 335.5,102.5 C 337.94,106.817 339.607,111.483 340.5,116.5C 337.678,112.376 336.011,107.709 335.5,102.5 Z"/></g>
<g><path style="opacity:1" fill="#080808" d="M 131.5,123.5 C 158.413,119.245 171.413,130.745 170.5,158C 169.645,189.763 154.312,200.096 124.5,189C 119.426,185.021 116.259,179.854 115,173.5C 112.71,162.402 113.043,151.402 116,140.5C 118.283,132.056 123.45,126.389 131.5,123.5 Z"/></g>
<g><path style="opacity:1" fill="#030303" d="M 229.5,125.5 C 229.5,128.833 229.5,132.167 229.5,135.5C 227.5,135.5 225.5,135.5 223.5,135.5C 216.159,135.334 208.826,135.5 201.5,136C 197.23,137.679 194.73,140.845 194,145.5C 192.867,155.985 193.533,166.318 196,176.5C 197.637,178.81 199.804,180.31 202.5,181C 207.155,181.499 211.821,181.666 216.5,181.5C 216.5,176.833 216.5,172.167 216.5,167.5C 214.5,167.5 212.5,167.5 210.5,167.5C 210.5,163.833 210.5,160.167 210.5,156.5C 216.833,156.5 223.167,156.5 229.5,156.5C 229.811,168.247 229.478,179.914 228.5,191.5C 220.492,192.013 212.492,192.68 204.5,193.5C 193.691,193.353 186.191,188.353 182,178.5C 178.77,164.792 178.77,151.126 182,137.5C 187.031,126.315 195.697,121.648 208,123.5C 215.246,123.459 222.413,124.126 229.5,125.5 Z"/></g>
<g><path style="opacity:0.328" fill="#e6e6e6" d="M 340.5,116.5 C 343.547,123.751 345.214,131.417 345.5,139.5C 343.391,132.048 341.724,124.381 340.5,116.5 Z"/></g>
<g><path style="opacity:1" fill="#fafafa" d="M 138.5,134.5 C 147.356,133.334 152.856,137 155,145.5C 155.891,155.228 155.557,164.894 154,174.5C 151.498,179.681 147.331,182.014 141.5,181.5C 134.806,181.304 130.639,177.971 129,171.5C 128.333,162.833 128.333,154.167 129,145.5C 129.942,139.736 133.109,136.069 138.5,134.5 Z"/></g>
<g><path style="opacity:1" fill="#898989" d="M 229.5,125.5 C 230.482,128.962 230.815,132.629 230.5,136.5C 227.941,136.802 225.607,136.468 223.5,135.5C 225.5,135.5 227.5,135.5 229.5,135.5C 229.5,132.167 229.5,128.833 229.5,125.5 Z"/></g>
<g><path style="opacity:1" fill="#acacac" d="M 345.5,139.5 C 346.167,143.167 346.833,146.833 347.5,150.5C 347.5,156.167 347.5,161.833 347.5,167.5C 346.566,168.568 346.232,169.901 346.5,171.5C 346.167,171.5 345.833,171.5 345.5,171.5C 345.5,160.833 345.5,150.167 345.5,139.5 Z"/></g>
<g><path style="opacity:1" fill="#595959" d="M 210.5,156.5 C 216.979,155.509 223.646,155.176 230.5,155.5C 231.146,167.88 230.479,179.88 228.5,191.5C 229.478,179.914 229.811,168.247 229.5,156.5C 223.167,156.5 216.833,156.5 210.5,156.5 Z"/></g>
<g><path style="opacity:0.624" fill="#cecece" d="M 345.5,171.5 C 345.833,171.5 346.167,171.5 346.5,171.5C 346.144,181.949 344.144,191.949 340.5,201.5C 342.806,191.609 344.473,181.609 345.5,171.5 Z"/></g>
<g><path style="opacity:0.251" fill="#dbdbdb" d="M 340.5,201.5 C 340.472,204.916 339.472,207.916 337.5,210.5C 337.928,207.215 338.928,204.215 340.5,201.5 Z"/></g>
<g><path style="opacity:0.624" fill="#c9c9c9" d="M 337.5,210.5 C 337.267,213.542 336.267,216.208 334.5,218.5C 334.733,215.458 335.733,212.792 337.5,210.5 Z"/></g>
<g><path style="opacity:0.565" fill="#c6c6c6" d="M 327.5,232.5 C 327.25,234.674 326.25,236.341 324.5,237.5C 324.75,235.326 325.75,233.659 327.5,232.5 Z"/></g>
<g><path style="opacity:0.502" fill="#cacaca" d="M 324.5,237.5 C 324.573,239.027 323.906,240.027 322.5,240.5C 322.427,238.973 323.094,237.973 324.5,237.5 Z"/></g>
<g><path style="opacity:0.502" fill="#b1b1b1" d="M 322.5,240.5 C 322.573,242.027 321.906,243.027 320.5,243.5C 320.427,241.973 321.094,240.973 322.5,240.5 Z"/></g>
<g><path style="opacity:0.125" fill="#c4c4c4" d="M 320.5,243.5 C 320.573,245.027 319.906,246.027 318.5,246.5C 318.427,244.973 319.094,243.973 320.5,243.5 Z"/></g>
<g><path style="opacity:0.125" fill="#dfdfdf" d="M 312.5,254.5 C 312.262,256.404 311.262,257.738 309.5,258.5C 309.738,256.596 310.738,255.262 312.5,254.5 Z"/></g>
<g><path style="opacity:0.063" fill="#eaeaea" d="M 304.5,263.5 C 302.833,267.167 300.167,269.833 296.5,271.5C 298.833,268.5 301.5,265.833 304.5,263.5 Z"/></g>
<g><path style="opacity:0.063" fill="#e4e4e4" d="M 291.5,276.5 C 291.027,277.906 290.027,278.573 288.5,278.5C 288.973,277.094 289.973,276.427 291.5,276.5 Z"/></g>
<g><path style="opacity:0.063" fill="#e2e2e2" d="M 286.5,280.5 C 286.027,281.906 285.027,282.573 283.5,282.5C 283.973,281.094 284.973,280.427 286.5,280.5 Z"/></g>
<g><path style="opacity:0.063" fill="#e0e0e0" d="M 282.5,283.5 C 282.027,284.906 281.027,285.573 279.5,285.5C 279.973,284.094 280.973,283.427 282.5,283.5 Z"/></g>
<g><path style="opacity:0.188" fill="#d3d3d3" d="M 276.5,287.5 C 276.027,288.906 275.027,289.573 273.5,289.5C 273.973,288.094 274.973,287.427 276.5,287.5 Z"/></g>
<g><path style="opacity:0.502" fill="#cfcfcf" d="M 265.5,294.5 C 264.341,296.25 262.674,297.25 260.5,297.5C 261.659,295.75 263.326,294.75 265.5,294.5 Z"/></g>
<g><path style="opacity:0.502" fill="#bcbcbc" d="M 254.5,300.5 C 252.574,302.293 250.241,303.293 247.5,303.5C 249.426,301.707 251.759,300.707 254.5,300.5 Z"/></g>
<g><path style="opacity:0.565" fill="#a4a4a4" d="M 245.5,304.5 C 243.208,306.267 240.542,307.267 237.5,307.5C 239.792,305.733 242.458,304.733 245.5,304.5 Z"/></g>
<g><path style="opacity:0.063" fill="#cdcdcd" d="M 237.5,307.5 C 233.915,309.806 229.915,311.139 225.5,311.5C 229.216,309.595 233.216,308.261 237.5,307.5 Z"/></g>
</svg>
