<?xml version="1.0" standalone="no"?>
<!DOCTYPE svg PUBLIC "-//W3C//DTD SVG 20010904//EN"
 "http://www.w3.org/TR/2001/REC-SVG-20010904/DTD/svg10.dtd">
<svg version="1.0" xmlns="http://www.w3.org/2000/svg"
 width="2038.000000pt" height="1376.000000pt" viewBox="0 0 2038.000000 1376.000000"
 preserveAspectRatio="xMidYMid meet">

<g transform="translate(0.000000,1376.000000) scale(0.100000,-0.100000)"
fill="#000000" stroke="none">
<path d="M0 6880 l0 -6880 10190 0 10190 0 0 6880 0 6880 -10190 0 -10190 0 0
-6880z m1520 6328 c182 -78 233 -320 99 -473 -49 -55 -138 -95 -215 -95 -91 0
-150 24 -214 89 -232 234 27 609 330 479z m576 -85 c8 -3 14 -18 14 -34 l0
-29 -83 0 c-85 0 -107 -8 -107 -42 0 -20 20 -32 98 -59 30 -11 64 -26 74 -35
40 -37 31 -147 -15 -179 -41 -29 -91 -36 -164 -25 -37 6 -68 12 -69 13 -1 1 1
16 3 33 l5 32 63 -6 c79 -6 111 2 118 29 9 36 -2 47 -79 75 -87 31 -114 59
-114 115 0 92 58 134 174 124 37 -4 74 -9 82 -12z m1274 -193 l0 -210 -40 0
-40 0 0 210 0 210 40 0 40 0 0 -210z m15046 62 c50 -151 49 -142 24 -142 -16
0 -26 11 -38 40 l-15 41 -50 -3 c-48 -3 -51 -5 -62 -38 -8 -24 -19 -36 -33
-38 -29 -4 -28 3 16 136 38 118 50 133 97 125 17 -4 28 -26 61 -121z m-1336 8
l0 -110 55 0 c48 0 55 -2 55 -20 0 -18 -7 -20 -80 -20 l-80 0 0 130 0 130 25
0 25 0 0 -110z m930 68 c0 -33 3 -39 12 -30 18 18 56 14 78 -8 17 -17 20 -33
20 -100 0 -73 -2 -80 -20 -80 -18 0 -20 7 -20 69 0 76 -16 104 -48 84 -13 -7
-18 -28 -20 -82 -3 -63 -5 -71 -22 -71 -19 0 -20 8 -20 130 0 123 1 130 20
130 17 0 20 -7 20 -42z m-4867 -9 c23 -28 22 -49 -3 -49 -11 0 -20 4 -20 10 0
5 -11 17 -24 25 -33 22 -78 10 -74 -18 2 -16 18 -27 63 -42 67 -23 93 -53 81
-99 -7 -30 -55 -56 -104 -56 -37 0 -77 31 -90 70 -10 28 -9 30 14 30 13 0 24
-5 24 -12 0 -20 32 -48 56 -48 37 0 54 11 54 36 0 20 -8 26 -56 40 -64 18 -94
43 -94 77 0 68 125 94 173 36z m-5623 11 c0 -17 -7 -20 -40 -20 l-39 0 -3
-107 c-3 -93 -5 -108 -20 -111 -16 -3 -18 7 -18 107 l0 111 -45 0 c-38 0 -45
3 -45 20 0 19 7 20 105 20 98 0 105 -1 105 -20z m60 -20 c0 -37 2 -40 19 -30
29 15 49 12 71 -10 17 -17 20 -33 20 -100 0 -73 -2 -80 -20 -80 -18 0 -20 7
-20 69 0 76 -16 104 -48 84 -13 -7 -18 -28 -20 -82 -3 -63 -5 -71 -22 -71 -19
0 -20 8 -20 130 0 123 1 130 20 130 17 0 20 -7 20 -40z m584 19 c28 -22 35
-66 15 -86 -9 -9 -8 -16 5 -28 19 -20 21 -64 3 -89 -14 -19 -72 -35 -129 -36
l-38 0 0 130 0 130 59 0 c44 0 65 -5 85 -21z m476 -5 c0 -21 -4 -25 -22 -22
-15 2 -24 11 -26 26 -3 18 1 22 22 22 21 0 26 -5 26 -26z m1343 15 c12 -7 25
-17 29 -23 11 -16 10 -60 -2 -72 -8 -8 -6 -15 5 -24 9 -7 15 -28 15 -51 0 -52
-30 -72 -113 -73 l-62 -1 -3 128 -3 127 56 0 c31 0 66 -5 78 -11z m127 -119
c0 -123 -1 -130 -20 -130 -19 0 -20 7 -20 130 0 123 1 130 20 130 19 0 20 -7
20 -130z m1408 110 c101 -62 66 -217 -54 -234 -102 -14 -94 -24 -94 124 l0
130 58 0 c40 0 67 -6 90 -20z m3262 0 c0 -18 -7 -20 -60 -20 l-60 0 0 -35 0
-35 61 0 c52 0 60 -2 57 -17 -2 -14 -15 -19 -60 -21 l-57 -3 -3 -52 c-3 -44
-6 -52 -23 -52 -19 0 -20 8 -23 128 l-3 127 86 0 c78 0 85 -2 85 -20z m278
-107 c-3 -120 -4 -128 -23 -128 -19 0 -20 8 -23 128 l-3 127 26 0 26 0 -3
-127z m80 0 c-3 -112 -5 -128 -20 -131 -16 -3 -18 8 -18 127 0 125 1 131 20
131 20 0 20 -5 18 -127z m672 39 c0 -98 14 -132 55 -132 45 0 55 23 55 126 0
87 1 94 20 94 19 0 20 -7 20 -101 0 -98 -1 -101 -29 -130 -22 -21 -39 -29 -66
-29 -27 0 -44 8 -66 29 -28 29 -29 32 -29 130 0 94 1 101 20 101 18 0 20 -7
20 -88z m-2550 38 c0 -13 7 -20 20 -20 11 0 20 -7 20 -15 0 -8 -9 -15 -20 -15
-18 0 -20 -7 -20 -60 0 -54 2 -60 21 -60 28 0 21 -34 -8 -38 -40 -6 -63 31
-63 98 0 47 -3 60 -15 60 -8 0 -15 7 -15 15 0 8 7 15 15 15 8 0 15 9 15 20 0
15 7 20 25 20 18 0 25 -5 25 -20z m310 0 c0 -13 7 -20 20 -20 11 0 20 -7 20
-15 0 -8 -9 -15 -20 -15 -18 0 -20 -7 -20 -60 0 -54 2 -60 21 -60 28 0 21 -34
-8 -38 -40 -6 -63 31 -63 98 0 47 -3 60 -15 60 -8 0 -15 7 -15 15 0 8 7 15 15
15 8 0 15 9 15 20 0 15 7 20 25 20 18 0 25 -5 25 -20z m3756 -14 c25 -21 28
-29 28 -97 l1 -74 -50 -2 c-71 -3 -90 3 -104 33 -23 50 10 84 80 84 24 0 30 4
27 18 -5 25 -44 27 -60 3 -16 -26 -48 -28 -48 -3 0 57 77 81 126 38z m392 4
c19 -18 22 -31 22 -100 0 -72 -2 -80 -19 -80 -16 0 -19 9 -23 70 -4 76 -18
101 -46 84 -13 -9 -18 -28 -20 -83 -3 -68 -4 -72 -25 -69 -21 3 -22 9 -25 95
l-3 92 38 4 c21 2 47 4 59 5 11 1 30 -7 42 -18z m205 -11 c9 -12 17 -27 17
-35 0 -22 -36 -16 -52 8 -21 31 -63 19 -71 -22 -10 -48 7 -80 42 -80 21 0 32
6 36 20 7 23 45 27 45 5 0 -9 -11 -27 -25 -40 -55 -56 -145 -9 -145 75 0 33 6
48 30 72 27 26 36 30 68 25 20 -4 45 -16 55 -28z m702 6 c20 -19 25 -34 25
-75 0 -41 -5 -56 -25 -75 -26 -27 -73 -33 -93 -13 -9 9 -12 3 -12 -31 0 -38
-2 -42 -22 -39 -22 3 -23 7 -26 127 l-3 123 31 -4 c17 -3 33 -1 36 4 11 17 65
8 89 -17z m210 0 c20 -19 25 -34 25 -75 0 -41 -5 -56 -25 -75 -26 -27 -73 -33
-93 -13 -9 9 -12 3 -12 -31 0 -38 -2 -42 -22 -39 -22 3 -23 7 -26 127 l-3 123
31 -4 c17 -3 33 -1 36 4 11 17 65 8 89 -17z m-1393 -57 c3 -70 4 -73 28 -73
24 0 25 3 28 73 3 64 5 72 22 72 18 0 20 -7 20 -94 l0 -94 -55 -1 c-80 -1 -95
17 -95 114 0 73 1 75 25 75 23 0 24 -3 27 -72z m-15057 32 c30 -28 47 -86 39
-129 l-6 -31 -89 0 c-49 0 -89 -3 -89 -6 0 -3 5 -14 10 -25 9 -16 22 -19 85
-19 41 0 75 -3 76 -7 0 -5 2 -16 4 -26 4 -23 -18 -33 -85 -40 -105 -12 -157
27 -167 126 -8 74 16 141 61 168 43 28 126 22 161 -11z m296 1 c28 -28 29 -33
29 -120 0 -49 5 -93 10 -96 6 -3 10 -22 10 -41 0 -35 0 -35 -32 -28 -18 5 -44
8 -58 7 -14 -1 -49 -3 -78 -4 -72 -4 -97 20 -97 92 0 65 23 86 106 95 54 6 60
9 57 28 -3 19 -9 21 -76 21 l-73 0 3 30 c3 34 24 42 116 44 47 1 57 -3 83 -28z
m308 15 c21 -11 30 -11 57 0 77 32 144 6 164 -64 5 -20 10 -81 10 -134 l0 -98
-39 0 -39 0 -4 105 c-4 120 -13 139 -66 129 l-32 -6 0 -114 0 -114 -40 0 -40
0 0 104 c0 114 -12 143 -54 132 -12 -3 -24 -6 -28 -6 -5 0 -8 -52 -8 -115 l0
-115 -40 0 -40 0 0 150 0 151 55 -2 c30 -1 58 1 62 4 11 11 56 7 82 -7z m668
-18 c26 -26 41 -81 35 -130 l-3 -28 -85 0 c-83 0 -85 -1 -82 -22 3 -21 9 -23
80 -26 72 -3 76 -4 83 -29 3 -14 4 -27 2 -30 -3 -2 -33 -8 -69 -14 -78 -12
-131 2 -162 44 -16 22 -21 43 -21 95 0 124 45 176 143 169 40 -3 59 -10 79
-29z m304 16 c5 -3 9 -19 9 -36 l0 -30 -57 3 c-32 1 -66 1 -75 1 -28 -3 -21
-31 10 -38 99 -22 103 -25 119 -61 32 -79 -18 -138 -115 -137 -94 1 -112 9
-112 47 l0 32 77 0 c62 0 78 3 78 15 0 10 -20 19 -60 28 -82 18 -97 33 -93 96
3 45 7 53 38 74 31 22 42 23 104 18 38 -4 72 -9 77 -12z m243 10 c45 -7 46 -8
46 -41 l0 -35 -57 3 c-32 1 -66 1 -75 1 -28 -3 -21 -31 10 -38 113 -25 121
-31 129 -92 4 -33 1 -44 -25 -73 -28 -32 -33 -33 -98 -33 -98 1 -116 9 -112
46 l3 31 75 1 c58 1 75 4 75 15 0 8 -13 18 -30 22 -16 4 -42 10 -58 13 -42 10
-67 41 -67 82 0 86 55 115 184 98z m3657 -23 c19 -20 29 -40 29 -60 l0 -31
-65 0 c-63 0 -65 -1 -55 -20 13 -24 65 -28 74 -5 6 17 46 21 46 5 0 -6 -11
-22 -25 -35 -72 -73 -177 25 -131 121 27 59 82 69 127 25z m502 -2 c23 -28 25
-169 3 -169 -8 0 -18 5 -22 11 -4 8 -9 8 -17 0 -18 -18 -65 -12 -87 11 -41 44
-17 87 54 95 36 4 46 9 42 20 -4 8 -6 17 -6 19 0 14 -51 1 -60 -16 -13 -25
-40 -26 -40 -2 0 21 19 47 40 55 26 10 74 -2 93 -24z m180 4 c9 -9 17 -22 17
-30 0 -18 -37 -16 -44 3 -4 10 -15 14 -33 12 -39 -4 -32 -21 14 -36 49 -17 66
-34 66 -68 0 -34 -26 -54 -70 -54 -36 0 -83 36 -83 65 0 22 37 18 43 -5 4 -15
14 -20 36 -20 46 0 40 27 -10 41 -51 16 -75 48 -59 79 22 41 84 47 123 13z
m280 -4 c9 -12 17 -27 17 -35 0 -22 -38 -16 -45 6 -7 24 -47 27 -64 6 -16 -20
-17 -72 -1 -91 18 -21 57 -19 70 5 14 26 40 26 40 1 0 -32 -49 -64 -89 -57
-44 7 -69 31 -77 73 -18 94 91 161 149 92z m170 4 c9 -9 17 -22 17 -30 0 -18
-37 -16 -44 3 -4 10 -15 14 -33 12 -39 -4 -32 -21 14 -36 49 -17 66 -34 66
-68 0 -34 -26 -54 -70 -54 -36 0 -83 36 -83 65 0 22 37 18 43 -5 4 -15 14 -20
36 -20 46 0 40 27 -10 41 -51 16 -75 48 -59 79 22 41 84 47 123 13z m1304 -11
c71 -86 -34 -209 -120 -142 -35 28 -45 81 -23 126 28 60 101 68 143 16z m196
28 l27 0 0 -102 c0 -110 -3 -119 -37 -137 -47 -24 -97 -12 -119 30 -14 28 -14
29 8 29 22 1 22 2 5 14 -68 52 -17 189 63 171 14 -3 37 -6 53 -5z m1232 -2
c29 -13 55 -55 55 -88 0 -29 -27 -77 -49 -90 -57 -30 -131 18 -131 85 0 41 24
83 54 95 29 12 41 12 71 -2z m228 -19 c9 -12 17 -27 17 -35 0 -21 -33 -17 -48
6 -14 23 -44 26 -61 6 -16 -20 -17 -72 -1 -91 18 -21 57 -19 70 5 14 26 40 26
40 1 0 -32 -49 -64 -89 -57 -44 7 -69 31 -77 73 -18 94 91 161 149 92z m170 4
c9 -9 17 -22 17 -30 0 -18 -37 -16 -44 3 -4 10 -15 14 -33 12 -39 -4 -32 -21
14 -36 49 -17 66 -34 66 -68 0 -34 -26 -54 -70 -54 -36 0 -83 36 -83 65 0 22
37 18 43 -5 4 -15 14 -20 36 -20 46 0 40 27 -10 41 -51 16 -75 48 -59 79 22
41 84 47 123 13z m1330 -4 c23 -28 25 -169 3 -169 -8 0 -18 5 -22 11 -4 8 -9
8 -17 0 -18 -18 -65 -12 -87 11 -41 44 -17 87 54 95 36 4 46 9 42 20 -4 8 -6
17 -6 19 0 14 -51 1 -60 -16 -13 -25 -40 -26 -40 -2 0 21 19 47 40 55 26 10
74 -2 93 -24z m280 20 c25 -14 37 -28 37 -46 0 -18 -37 -16 -44 2 -7 20 -56
20 -56 0 0 -8 16 -19 40 -25 59 -16 85 -52 62 -86 -11 -18 -49 -34 -77 -34
-28 0 -75 40 -75 65 0 22 38 18 45 -5 4 -14 15 -20 35 -20 44 0 46 19 3 35
-63 25 -68 30 -68 66 0 26 6 36 25 46 31 16 45 16 73 2z m1224 -27 c51 -61 9
-162 -67 -162 -43 0 -90 47 -90 90 0 41 25 89 53 100 34 15 80 3 104 -28z
m370 0 c51 -61 9 -162 -67 -162 -43 0 -90 47 -90 90 0 41 25 89 53 100 34 15
80 3 104 -28z m806 7 c9 -12 17 -25 17 -30 0 -15 -39 -10 -48 7 -5 9 -18 14
-33 12 -36 -5 -29 -21 15 -36 53 -17 66 -29 66 -63 0 -55 -82 -79 -127 -37
-13 12 -23 30 -23 40 0 25 36 23 43 -2 4 -15 14 -20 36 -20 44 0 40 26 -6 40
-76 25 -93 63 -46 100 33 26 79 21 106 -11z m-7495 -71 c-3 -79 -6 -93 -20
-96 -16 -3 -18 6 -18 92 0 90 1 96 20 96 20 0 21 -5 18 -92z m6782 35 c19 -89
25 -91 39 -14 l13 71 34 0 c38 0 38 1 55 -85 l12 -60 9 35 c5 19 14 52 19 73
7 27 15 37 30 37 23 0 23 -4 -9 -123 -16 -56 -20 -62 -46 -65 -34 -4 -43 7
-51 68 -10 70 -21 79 -30 24 -11 -78 -21 -94 -54 -94 -33 0 -28 -10 -64 133
-15 57 -15 57 7 57 20 0 25 -8 36 -57z m-11422 -1495 c174 -138 836 -695 848
-714 9 -12 14 -35 12 -50 -2 -22 -11 -29 -47 -40 -23 -7 -84 -38 -135 -68
-115 -70 -144 -72 -195 -18 -20 21 -91 126 -159 233 -136 214 -243 363 -268
373 -39 15 -55 -32 -79 -223 -17 -134 -35 -191 -60 -191 -24 0 -101 85 -170
190 -56 84 -83 130 -183 309 l-24 44 -74 -7 c-87 -7 -98 8 -36 48 36 24 85 40
342 110 162 44 177 44 228 4z m-706 -562 c118 -197 132 -263 86 -392 -28 -77
-164 -231 -240 -270 -16 -8 -38 -35 -52 -62 -22 -44 -98 -112 -125 -112 -19 0
-26 74 -26 290 0 208 1 218 28 305 52 166 153 356 200 375 18 7 28 2 54 -27
18 -19 51 -67 75 -107z m4722 64 c14 -17 54 -90 89 -163 142 -293 315 -501
542 -652 222 -147 509 -243 785 -261 52 -3 136 -12 185 -21 133 -21 166 -46
257 -191 40 -64 89 -148 109 -187 19 -38 78 -135 131 -215 75 -113 122 -172
219 -271 140 -142 189 -180 374 -291 170 -102 185 -112 185 -120 0 -33 -220
31 -385 111 -210 103 -368 215 -396 282 -6 16 -17 29 -25 29 -15 0 -51 106
-113 332 -118 428 -185 485 -573 487 -322 1 -555 57 -858 205 -91 45 -203 86
-234 86 -13 0 -40 -18 -66 -45 -24 -25 -52 -45 -62 -45 -10 0 -31 19 -48 41
-40 56 -44 41 -37 -124 8 -189 51 -452 122 -742 41 -165 51 -255 30 -255 -12
0 -22 16 -26 45 -1 6 -8 15 -15 20 -27 22 -99 414 -144 789 -37 302 -55 334
-46 81 3 -99 10 -214 16 -255 19 -133 50 -311 82 -467 30 -151 31 -153 57
-153 23 0 27 -5 29 -32 1 -18 7 -58 14 -88 6 -30 12 -59 12 -65 1 -5 29 -11
64 -13 l62 -3 0 -141 0 -141 23 20 c108 99 301 42 342 -102 12 -40 15 -99 13
-271 l-3 -219 -70 0 -70 0 -5 225 c-3 153 -9 232 -17 247 -29 49 -133 54 -179
8 -49 -49 -25 -150 124 -525 52 -131 70 -200 53 -200 -16 0 -81 82 -142 180
-38 59 -59 85 -63 75 -4 -11 -22 -15 -69 -15 l-64 0 -6 122 c-4 66 -7 146 -7
177 0 39 -11 83 -35 146 -19 50 -34 84 -35 78 0 -9 -22 -13 -75 -13 l-75 0 2
-192 3 -193 68 -3 67 -3 0 -59 0 -60 -82 0 c-62 0 -92 5 -124 20 -67 33 -74
62 -74 295 l0 194 -52 3 -53 3 -3 58 -3 57 56 0 55 0 0 70 0 71 68 -3 67 -3 3
-67 3 -68 60 0 c53 0 60 2 55 18 -78 251 -128 511 -176 917 -11 94 -34 269
-51 390 -34 234 -34 232 -13 722 2 45 0 85 -5 87 -4 3 -17 3 -28 0 -35 -9 -79
-108 -118 -264 -101 -400 -186 -656 -268 -810 -35 -67 -146 -234 -182 -275
-15 -16 -51 -56 -80 -87 -47 -49 -80 -78 -200 -176 -25 -20 -124 -61 -147 -62
-10 0 -18 -7 -18 -15 0 -8 3 -15 8 -15 8 0 6 -84 -2 -106 -9 -22 -44 -16 -108
18 -35 19 -65 43 -74 60 -8 15 -21 28 -29 28 -17 0 -25 12 -31 47 -3 15 -14
54 -25 87 -33 96 -90 401 -119 626 -6 47 -20 148 -31 224 -21 137 -20 191 3
241 14 32 141 97 588 302 53 25 341 162 660 314 85 40 182 88 215 106 77 41
106 42 139 3z m-3889 -1062 c3 -24 9 -86 14 -138 9 -110 11 -107 -84 -178 -70
-51 -74 -47 -50 49 26 104 97 309 106 309 4 0 10 -19 14 -42z m13473 -234 c13
-9 22 -20 20 -26 -2 -6 -79 -11 -198 -13 -208 -4 -216 0 -65 35 104 24 213 26
243 4z m-15565 -424 c8 -11 32 -40 54 -63 22 -23 45 -52 51 -63 16 -30 25
-104 12 -104 -5 0 -10 -10 -10 -22 -1 -49 -146 -230 -212 -264 -73 -38 -94 39
-64 237 15 97 56 204 103 267 28 37 46 40 66 12z m15123 -239 c-2 -3 7 -7 21
-8 14 0 28 -5 32 -10 3 -4 15 -10 26 -11 11 -2 23 -9 27 -15 4 -6 10 -8 14 -5
4 4 18 -2 32 -12 13 -11 31 -20 38 -20 8 0 14 -4 14 -8 0 -5 6 -9 13 -9 30 0
140 -89 252 -205 66 -69 127 -133 136 -144 9 -10 29 -31 45 -46 65 -59 150
-155 166 -188 10 -19 18 -28 18 -20 0 7 3 11 6 7 3 -3 4 -7 2 -9 -1 -3 12 -19
30 -37 17 -18 32 -37 32 -42 0 -14 26 -39 34 -34 3 3 4 2 1 -2 -3 -3 3 -15 12
-26 10 -11 12 -17 5 -13 -7 4 -1 -9 13 -29 13 -21 22 -41 19 -46 -3 -5 0 -9 6
-9 7 0 10 -7 6 -15 -3 -8 -2 -15 3 -15 5 0 14 -13 21 -30 7 -16 15 -28 19 -26
4 3 6 -10 6 -27 -1 -18 5 -38 12 -45 10 -10 10 -18 2 -34 -9 -17 -9 -20 3 -15
12 4 14 -4 11 -40 -3 -27 1 -50 9 -61 11 -13 11 -14 -1 -8 -10 6 -12 4 -7 -10
3 -11 1 -26 -4 -34 -8 -12 -10 -10 -10 10 -1 24 -2 24 -10 4 -9 -23 -60 -78
-60 -66 0 4 -5 -1 -11 -10 -5 -10 -15 -18 -20 -18 -6 0 -37 -13 -71 -30 -33
-16 -64 -28 -68 -25 -5 3 -11 1 -14 -4 -4 -5 -14 -8 -24 -6 -9 1 -24 -1 -32
-5 -29 -15 -245 -68 -345 -85 -55 -9 -102 -18 -105 -20 -3 -2 -32 -6 -65 -9
-33 -3 -71 -8 -85 -11 -144 -28 -528 -50 -855 -50 -251 0 -346 4 -340 16 7 10
53 17 240 34 223 20 244 23 352 45 95 20 153 43 153 61 0 6 4 8 9 4 12 -7 10
38 -2 46 -4 3 -9 13 -10 21 -2 8 -20 35 -41 61 -21 25 -39 52 -40 59 -1 7 -13
33 -25 58 -27 50 -59 155 -67 215 -3 22 -10 43 -16 46 -7 4 -7 9 0 13 7 4 7
18 1 40 -10 37 -5 179 10 277 6 35 12 91 15 124 9 98 15 120 59 218 17 37 34
67 39 67 5 0 7 4 4 8 -8 13 99 137 141 163 20 13 49 31 63 40 24 15 165 25
156 10z m-8891 -81 c3 -5 1 -10 -4 -10 -6 0 -11 5 -11 10 0 6 2 10 4 10 3 0 8
-4 11 -10z m-6924 -480 c50 -213 89 -357 92 -345 3 11 31 153 62 315 30 162
60 319 66 348 l10 52 114 0 c100 0 114 -2 119 -17 3 -10 33 -166 66 -348 33
-181 64 -338 68 -348 5 -12 37 112 92 347 l84 366 68 0 c58 0 68 -3 68 -17 0
-10 -45 -202 -98 -428 l-98 -410 -115 0 -114 0 -18 90 c-10 50 -42 211 -70
359 l-52 269 -70 -362 -69 -362 -115 3 -115 3 -98 410 c-53 226 -97 418 -98
428 0 16 8 18 68 15 l67 -3 86 -365z m1749 -60 l0 -430 -70 0 -70 0 0 423 c0
233 3 427 7 430 3 4 35 7 70 7 l63 0 0 -430z m3548 268 l3 -68 75 0 75 0 -3
-57 -3 -58 -73 -3 -72 -3 2 -192 3 -192 68 -3 67 -3 0 -61 0 -60 -94 4 c-101
4 -131 16 -163 65 -15 23 -18 57 -21 235 l-4 208 -49 0 -49 0 0 60 0 60 50 0
50 0 0 63 c0 35 3 67 7 71 4 4 34 6 68 4 l60 -3 3 -67z m2570 -70 c59 -15 133
-84 162 -150 13 -31 24 -81 27 -128 l6 -77 -212 -5 c-117 -3 -215 -9 -218 -12
-12 -12 32 -99 59 -119 17 -12 49 -22 82 -25 69 -6 98 11 128 73 l22 45 63 0
c71 0 72 -2 51 -74 -19 -63 -92 -131 -164 -152 -73 -21 -173 -15 -230 14 -170
87 -216 375 -83 526 85 96 168 119 307 84z m-6534 -8 c101 -38 162 -134 173
-272 l6 -78 -217 0 -216 0 0 -27 c0 -71 73 -133 157 -133 61 0 105 30 123 85
l12 35 64 0 c60 0 64 -1 64 -22 0 -39 -46 -123 -84 -155 -82 -67 -226 -81
-324 -30 -58 30 -114 101 -137 174 -23 73 -17 209 12 274 65 145 215 206 367
149z m922 5 c84 -25 157 -114 166 -202 3 -28 3 -28 -62 -28 -64 0 -64 0 -74
33 -13 46 -47 79 -97 92 -98 27 -178 -50 -187 -180 -6 -82 19 -160 63 -199 31
-27 43 -31 95 -31 71 0 110 27 129 89 l12 41 66 0 65 0 -7 -37 c-14 -78 -72
-154 -143 -189 -56 -28 -203 -27 -258 3 -48 26 -105 86 -135 145 -35 66 -38
203 -8 283 28 76 115 167 174 182 59 16 145 15 201 -2z m640 -2 c68 -23 144
-101 172 -176 62 -164 -3 -355 -144 -427 -67 -34 -198 -36 -259 -3 -211 112
-235 419 -45 567 25 19 61 39 80 44 55 16 142 14 196 -5z m682 1 c20 -8 51
-28 68 -45 l30 -29 30 31 c43 45 76 59 141 59 110 0 193 -66 213 -169 5 -30
10 -148 10 -262 l0 -209 -69 0 -70 0 -3 231 -3 231 -33 29 c-46 41 -108 41
-154 0 l-33 -29 -3 -231 -3 -231 -65 0 -64 0 0 193 c-1 225 -8 273 -45 304
-37 33 -113 32 -152 -1 l-28 -24 -3 -236 -3 -236 -70 0 -69 0 0 315 0 315 65
0 65 0 0 -32 0 -32 28 26 c15 14 36 30 47 36 29 17 130 14 173 -4z m968 5 c61
-16 135 -83 164 -151 15 -34 25 -80 28 -130 l5 -78 -217 0 c-244 0 -233 4
-196 -77 25 -56 70 -83 136 -83 61 0 94 22 124 81 20 39 21 39 80 39 32 0 61
-3 64 -8 2 -4 -4 -32 -14 -62 -38 -112 -151 -178 -285 -168 -74 6 -130 33
-179 89 -65 72 -81 118 -81 239 1 88 4 112 23 150 69 142 192 198 348 159z
m1365 -12 c55 -27 119 -94 148 -156 35 -75 37 -211 5 -282 -28 -60 -85 -123
-143 -157 -40 -24 -57 -27 -131 -27 -71 0 -93 4 -133 25 -123 62 -189 206
-165 357 17 108 98 213 191 247 56 20 180 16 228 -7z m12912 -214 c-2 -41 -53
-157 -175 -398 -58 -114 -226 -387 -265 -430 -10 -11 -34 -40 -53 -65 -40 -53
-95 -114 -166 -184 -71 -72 -104 -97 -116 -89 -6 3 -8 1 -5 -4 10 -16 -25 -26
-39 -11 -11 11 -20 62 -14 78 1 3 3 16 5 30 4 33 88 222 115 259 11 16 20 33
20 38 0 15 105 132 331 366 110 114 161 195 140 221 -7 9 -26 16 -41 16 -25 0
-177 -71 -190 -88 -3 -5 -20 -14 -37 -21 -18 -8 -33 -18 -33 -23 0 -6 -7 -8
-15 -4 -8 3 -15 1 -15 -5 0 -6 -7 -6 -20 1 -13 7 -20 7 -20 1 0 -6 -7 -8 -15
-5 -13 5 -13 9 -3 22 9 11 9 14 1 9 -8 -5 -12 4 -11 33 0 25 4 37 11 33 5 -3
7 -1 3 5 -3 6 -2 22 4 36 6 16 6 27 0 31 -6 3 -1 16 10 27 11 12 17 24 13 27
-12 9 -12 40 0 38 6 -1 11 7 12 17 0 23 67 65 73 46 3 -9 7 -9 13 1 6 10 9 11
9 2 0 -7 7 -13 15 -13 8 0 15 -5 15 -10 0 -6 8 -10 18 -8 10 2 17 -3 17 -12 0
-19 36 -30 54 -16 12 9 13 8 7 -2 -7 -11 -1 -13 25 -8 52 8 63 11 77 20 7 4
16 6 19 3 2 -3 27 8 54 23 52 31 134 60 159 57 11 -2 15 -14 13 -44z m-865
-364 c2 -5 8 -7 12 -4 13 8 61 -6 54 -16 -3 -5 2 -6 11 -3 8 4 22 0 31 -7 12
-10 17 -10 23 0 25 40 22 -100 -3 -151 -20 -41 -40 -42 -50 -2 -4 13 -11 24
-16 24 -6 0 -10 6 -10 14 0 8 -27 37 -60 66 -33 29 -60 48 -60 43 0 -4 -6 3
-13 17 -9 17 -10 27 -3 33 14 9 80 -1 84 -14z m-675 -177 c2 -10 0 -27 -5 -39
-11 -32 0 -29 12 3 8 21 15 25 35 22 13 -3 22 -1 19 3 -3 5 -13 9 -22 9 -15 0
-15 2 -2 10 11 7 19 3 30 -15 8 -14 22 -28 31 -30 10 -3 23 -13 30 -23 11 -14
11 -15 -1 -4 -21 18 -33 15 -27 -8 4 -17 2 -18 -16 -9 -19 11 -19 13 -4 24 17
12 17 13 1 19 -10 4 -22 2 -28 -4 -8 -8 -6 -9 8 -4 15 6 17 4 10 -7 -5 -8 -9
-18 -9 -23 0 -5 -5 -11 -11 -13 -7 -2 -12 2 -11 9 1 36 -4 58 -14 58 -7 0 -8
-7 -4 -17 20 -50 20 -49 3 -35 -11 9 -18 10 -23 2 -3 -6 -12 -7 -18 -3 -18 11
-38 12 -31 2 3 -5 9 -7 14 -4 5 3 11 1 15 -5 3 -5 1 -10 -6 -10 -7 0 -9 -3 -6
-7 4 -3 15 1 26 11 16 14 20 15 30 2 7 -8 10 -20 6 -26 -9 -14 -27 -2 -19 13
5 8 3 8 -7 0 -17 -16 -49 -17 -49 -1 0 6 -8 20 -17 31 -10 11 -12 17 -5 13 12
-7 16 3 12 37 -4 41 44 58 53 19z m-8602 -59 c12 -27 61 -178 111 -338 49
-159 110 -355 136 -435 l47 -145 5 305 5 305 269 3 c148 1 273 -1 278 -6 5 -5
6 -34 2 -65 l-7 -57 -203 0 -204 0 0 -120 0 -120 205 0 205 0 0 -60 0 -60
-205 0 -205 0 0 -185 0 -185 -26 0 c-18 0 -25 -4 -21 -14 13 -32 18 -104 9
-110 -24 -15 -94 103 -176 295 l-41 96 -223 2 -223 3 7 -29 c21 -85 64 -125
144 -131 74 -5 104 11 131 74 l20 44 66 0 66 0 -6 -37 c-8 -49 -55 -123 -97
-151 -83 -56 -223 -67 -306 -24 -144 74 -204 301 -124 468 29 59 108 128 165
144 67 19 173 9 227 -22 l44 -24 -28 105 c-55 208 -99 521 -73 521 3 0 15 -21
26 -47z m-8580 -345 c6 -24 51 -194 99 -378 86 -329 88 -334 99 -295 7 22 51
191 99 375 l87 335 120 0 c108 0 120 -2 119 -17 0 -10 -1 -203 -2 -428 l-2
-411 -67 3 -68 3 -3 325 -4 325 -58 -225 c-32 -124 -71 -271 -86 -327 l-27
-103 -52 0 c-46 0 -54 -3 -60 -22 l-8 -23 -4 22 c-4 19 -12 22 -60 25 l-56 3
-83 323 c-45 178 -85 326 -88 330 -3 3 -6 -144 -6 -326 l0 -332 -70 0 -70 0 0
423 c0 233 3 427 7 430 3 4 57 7 119 7 l113 0 12 -42z m2007 -390 l2 -428 -70
0 -70 0 0 32 c0 29 -1 30 -17 16 -36 -31 -103 -58 -146 -58 -111 0 -202 56
-252 156 -28 55 -30 67 -30 169 0 126 15 172 80 243 57 63 111 85 200 80 64
-3 80 -8 119 -35 l46 -33 0 139 c0 76 3 141 7 145 4 4 34 6 68 4 l60 -3 3
-427z m2640 365 l3 -63 -186 0 -185 0 0 -115 0 -115 180 0 180 0 0 -60 0 -60
-180 0 -180 0 0 -130 0 -130 190 0 190 0 0 -60 0 -60 -260 0 -260 0 0 423 c0
233 3 427 7 431 4 3 117 5 252 4 l246 -3 3 -62z m2410 5 l3 -58 -65 0 c-74 0
-86 -11 -86 -74 l0 -36 75 0 75 0 0 -60 0 -60 -75 0 -75 0 0 -255 0 -255 -65
0 -65 0 0 255 0 255 -55 0 -55 0 0 60 0 60 55 0 55 0 0 61 c0 130 50 169 210
166 l65 -2 3 -57z m687 52 c93 -13 202 -67 250 -123 74 -85 106 -174 106 -295
0 -136 -30 -220 -109 -304 -92 -98 -188 -128 -413 -128 l-156 0 -6 422 c-3
233 -3 426 -1 430 7 11 246 9 329 -2z m1935 -70 l0 -80 -75 0 -75 0 0 80 0 80
75 0 75 0 0 -80z m-8526 -161 c39 -14 69 -35 103 -73 144 -158 107 -417 -76
-524 -41 -24 -56 -27 -136 -27 -100 0 -127 10 -196 72 -110 99 -138 266 -68
410 27 55 118 138 166 151 65 17 148 14 207 -9z m1382 -7 c89 -45 143 -140
151 -264 l6 -78 -218 0 -218 0 6 -36 c13 -78 70 -124 154 -124 61 0 105 30
123 85 l12 35 64 0 c60 0 64 -1 64 -22 0 -40 -46 -123 -86 -157 -81 -66 -223
-80 -319 -30 -105 55 -160 170 -153 317 7 137 61 231 163 279 43 21 61 23 130
20 56 -2 92 -10 121 -25z m574 -41 l0 -68 -48 -6 c-26 -3 -60 -11 -76 -18 -51
-24 -56 -49 -56 -274 l0 -205 -70 0 -70 0 0 315 0 315 70 0 c69 0 70 0 70 -27
0 -24 1 -25 18 -11 33 30 77 47 120 48 l42 0 0 -69z m471 46 c24 -13 58 -43
74 -66 l30 -43 3 -254 3 -254 -65 0 -66 0 0 203 c0 220 -7 266 -47 297 -32 25
-108 27 -142 4 -45 -32 -51 -68 -51 -294 l0 -210 -65 0 -65 0 0 315 0 315 65
0 65 0 0 -32 c0 -27 2 -30 13 -16 47 61 167 78 248 35z m1509 -46 l0 -68 -56
-7 c-118 -14 -124 -29 -124 -296 l0 -200 -65 0 -65 0 0 315 0 315 65 0 65 0 0
-32 c0 -27 2 -30 13 -16 24 31 82 58 125 58 l42 0 0 -69z m438 39 c52 -30 98
-96 109 -159 4 -25 8 -136 8 -246 l0 -200 -67 -3 -68 -3 0 31 0 32 -30 -26
c-83 -69 -228 -61 -306 18 -112 111 -66 264 91 309 33 9 100 21 150 27 49 6
92 13 94 16 2 2 -1 22 -8 44 -14 49 -48 73 -104 74 -85 1 -112 -18 -127 -89
-6 -30 -7 -30 -70 -30 l-65 0 3 39 c6 68 48 133 107 163 53 28 78 33 160 30
63 -3 90 -8 123 -27z m897 19 c70 -19 139 -80 177 -156 81 -165 27 -363 -122
-447 -50 -28 -63 -31 -140 -31 -100 0 -142 17 -208 83 -69 68 -87 118 -87 237
0 82 4 109 22 147 29 64 108 141 164 161 52 18 138 21 194 6z m3245 -314 l0
-315 -65 0 -65 0 0 315 0 315 65 0 65 0 0 -315z m3810 -675 c0 -5 9 -10 21
-10 13 0 18 4 13 13 -6 8 -3 8 9 -1 9 -8 21 -11 26 -8 5 4 13 1 16 -4 4 -6 18
-15 32 -21 13 -5 22 -13 19 -18 -3 -4 6 -6 19 -3 15 2 25 0 25 -7 0 -6 7 -11
15 -11 9 0 18 -7 21 -15 4 -8 10 -12 15 -9 5 3 9 0 9 -5 0 -6 7 -11 15 -11 9
0 18 -7 21 -15 4 -8 12 -15 19 -15 7 0 18 -7 25 -15 7 -8 16 -13 20 -10 5 3
11 -4 15 -15 4 -11 10 -18 15 -15 5 3 7 -4 5 -15 -2 -12 1 -20 9 -20 18 0 49
-36 42 -48 -3 -6 1 -13 9 -16 8 -3 14 -9 13 -13 -5 -16 44 -83 60 -83 12 0 13
-3 5 -8 -9 -6 -8 -15 4 -40 8 -17 20 -29 25 -26 6 4 2 -6 -8 -22 -11 -15 -14
-25 -8 -21 7 4 14 -1 17 -13 3 -11 1 -22 -3 -25 -5 -3 -8 -33 -8 -67 1 -46 -2
-64 -15 -73 -9 -7 -17 -17 -17 -23 0 -6 -5 -14 -12 -18 -7 -5 -8 -3 -3 7 8 12
6 12 -8 0 -9 -7 -14 -18 -10 -24 3 -5 1 -7 -4 -4 -6 4 -16 0 -23 -8 -7 -8 -16
-13 -20 -10 -10 6 -60 -15 -60 -24 0 -4 -8 -7 -17 -8 -26 -2 -46 -7 -60 -16
-8 -5 -13 -3 -13 3 0 7 -7 7 -22 -2 -29 -15 -58 -18 -58 -5 0 5 -12 2 -26 -8
-20 -13 -28 -14 -34 -5 -6 9 -9 9 -15 1 -5 -9 -10 -9 -21 0 -8 6 -25 9 -38 7
-15 -3 -27 0 -30 8 -3 7 -14 10 -26 7 -16 -4 -23 0 -27 16 -3 11 -12 21 -19
21 -8 0 -23 9 -33 19 -11 11 -23 16 -27 13 -4 -4 -4 -1 0 5 4 7 -2 23 -14 35
-46 49 -79 96 -72 102 4 4 1 6 -6 4 -9 -2 -22 22 -38 72 -29 89 -35 140 -20
159 9 12 8 13 -3 7 -10 -6 -12 -4 -8 10 3 11 9 36 13 57 3 20 14 42 23 47 9 6
11 10 4 10 -22 0 -11 26 30 71 9 10 17 21 17 24 0 39 0 40 9 26 8 -12 11 -10
16 10 3 14 16 29 28 35 12 5 21 16 19 23 -2 8 3 11 13 8 9 -4 15 -1 15 8 0 8
5 15 11 15 5 0 8 -4 4 -10 -3 -5 7 -5 25 1 16 6 27 15 24 20 -3 5 0 9 5 9 6 0
11 -4 11 -10z m-2388 -541 c128 -27 251 -114 318 -225 164 -273 18 -635 -289
-716 -62 -16 -399 -17 -5544 -17 -4927 -1 -5485 1 -5547 15 -166 38 -308 176
-352 343 -68 260 85 526 341 593 62 16 399 17 5543 17 3962 1 5492 -2 5530
-10z m5048 -30 c0 -76 -356 -525 -472 -596 -16 -10 -28 -22 -28 -27 0 -5 -7
-1 -15 10 -17 22 -20 70 -5 79 6 3 10 17 10 31 0 13 4 24 9 24 5 0 11 10 15
23 7 28 40 100 66 145 11 18 19 33 18 35 -1 1 18 37 41 79 54 99 99 137 214
181 109 43 147 47 147 16z m-4600 -4614 c0 -8 10 -20 23 -26 37 -20 52 -59 22
-59 -8 0 -15 7 -15 15 0 21 -35 37 -65 29 -34 -9 -33 -41 3 -55 75 -30 91 -40
97 -60 9 -28 -13 -68 -42 -75 -13 -4 -23 -12 -23 -20 0 -8 -7 -14 -15 -14 -8
0 -15 5 -15 11 0 6 -16 25 -35 43 -36 35 -46 66 -20 66 8 0 15 -5 15 -12 0
-39 74 -64 100 -33 19 23 5 43 -37 54 -52 14 -83 38 -83 63 0 25 27 58 47 58
7 0 13 7 13 15 0 8 7 15 15 15 8 0 15 -7 15 -15z m-11732 -31 c25 -17 30 -54
7 -54 -8 0 -15 7 -15 15 0 24 -39 39 -67 26 -37 -17 -24 -40 37 -64 42 -17 57
-29 65 -51 8 -25 6 -31 -19 -53 -48 -41 -122 -18 -141 45 -5 16 -2 22 9 22 9
0 16 -5 16 -12 0 -39 74 -64 100 -33 19 22 6 42 -37 55 -59 19 -83 38 -83 65
0 30 34 55 75 55 17 0 41 -7 53 -16z m600 -91 c-2 -74 -7 -108 -15 -111 -10
-3 -13 23 -13 107 0 93 2 111 15 111 13 0 15 -16 13 -107z m372 87 c13 -25 5
-56 -17 -64 -14 -6 -14 -8 2 -26 22 -24 35 -26 35 -5 0 8 5 15 11 15 6 0 9
-15 8 -34 -2 -23 3 -42 15 -55 24 -26 14 -38 -18 -22 -18 10 -28 10 -46 1 -68
-36 -146 54 -90 105 14 12 17 25 13 46 -3 17 0 35 7 44 18 22 67 19 80 -5z
m278 4 c23 -16 31 -67 12 -79 -6 -4 -4 -12 5 -21 8 -9 15 -26 15 -38 0 -37
-33 -58 -92 -60 l-53 -1 -3 108 -3 107 48 0 c28 0 58 -7 71 -16z m1032 1 c0
-10 -11 -15 -35 -15 l-35 0 0 -96 c0 -72 -3 -95 -12 -92 -9 3 -14 34 -16 96
l-3 91 -31 3 c-17 2 -33 9 -36 16 -3 9 18 12 82 12 70 0 86 -3 86 -15z m190
-41 l0 -55 33 25 c19 15 42 26 52 26 14 0 8 -9 -21 -34 l-39 -34 38 -39 c20
-21 37 -42 37 -46 0 -18 -29 -4 -61 29 l-34 35 -5 -31 c-3 -17 -9 -32 -15 -33
-6 -1 -11 41 -13 106 -2 91 0 107 13 107 12 0 15 -12 15 -56z m1232 39 c20
-18 24 -68 7 -79 -8 -5 -6 -10 5 -16 10 -6 16 -22 16 -43 0 -43 -23 -57 -94
-59 l-51 -1 -3 108 -3 107 52 0 c35 0 59 -6 71 -17z m188 -3 c0 -11 -7 -20
-15 -20 -8 0 -15 9 -15 20 0 11 7 20 15 20 8 0 15 -9 15 -20z m170 -90 c0
-107 -4 -122 -27 -99 -8 8 -13 8 -17 0 -11 -18 -43 -13 -71 12 -63 54 -12 164
63 136 20 -8 22 -6 22 26 0 24 5 35 15 35 12 0 15 -19 15 -110z m558 98 c18
-18 14 -55 -8 -71 -19 -14 -19 -14 5 -37 l25 -23 0 22 c0 14 5 21 13 18 7 -2
11 -18 9 -37 -1 -20 4 -40 14 -52 23 -24 10 -35 -21 -18 -20 11 -27 11 -40 0
-19 -15 -71 -6 -97 17 -24 21 -23 65 2 88 14 12 17 25 13 46 -3 17 0 35 7 44
15 18 61 20 78 3z m290 -4 c25 -17 30 -54 7 -54 -8 0 -15 7 -15 15 0 23 -39
39 -66 26 -32 -14 -30 -39 4 -52 81 -32 92 -39 98 -65 6 -22 2 -32 -21 -52
-47 -40 -121 -16 -140 46 -5 16 -2 22 9 22 9 0 16 -5 16 -12 0 -39 74 -64 100
-33 19 22 6 42 -37 55 -59 19 -83 38 -83 65 0 30 34 55 75 55 17 0 41 -7 53
-16z m2412 -79 l0 -95 51 0 c36 0 49 -4 47 -12 -3 -9 -25 -13 -64 -13 l-59 0
-3 108 c-2 91 0 107 13 107 12 0 15 -16 15 -95z m810 76 c14 -28 13 -38 -9
-58 -19 -18 -19 -18 0 -42 l20 -24 6 21 c9 35 25 25 22 -12 -2 -23 3 -42 15
-55 24 -26 14 -38 -18 -22 -18 10 -28 10 -46 1 -68 -36 -146 54 -90 105 14 12
17 25 13 46 -3 17 0 35 7 44 18 22 67 19 80 -4z m287 -76 c47 -128 46 -125 29
-125 -8 0 -20 16 -26 35 -11 34 -13 35 -61 35 -43 0 -49 -3 -55 -25 -6 -26
-31 -52 -40 -42 -5 5 58 185 73 210 3 4 14 7 26 5 15 -2 28 -23 54 -93z m511
-12 c-2 -74 -7 -108 -15 -111 -10 -3 -13 23 -13 107 0 93 2 111 15 111 13 0
15 -16 13 -107z m62 87 c0 -11 -7 -20 -15 -20 -8 0 -15 9 -15 20 0 11 7 20 15
20 8 0 15 -9 15 -20z m120 9 c0 -6 -9 -13 -20 -16 -32 -9 -24 -33 11 -33 27 0
33 -6 56 -57 l26 -58 15 35 c8 19 18 45 23 58 5 12 15 22 24 22 11 0 12 -5 6
-22 -58 -151 -74 -188 -83 -188 -6 0 -8 12 -5 29 9 42 -45 161 -73 161 -17 0
-19 -8 -22 -67 -2 -42 -8 -68 -15 -71 -10 -3 -13 15 -13 67 0 56 -3 71 -15 71
-8 0 -15 5 -15 10 0 6 7 10 15 10 9 0 15 9 15 23 0 13 3 27 7 30 11 11 63 8
63 -4z m378 -1 c-3 -7 -21 -14 -41 -16 l-37 -3 0 -95 c0 -56 -4 -94 -10 -94
-6 0 -10 38 -10 95 l0 95 -35 0 c-24 0 -35 5 -35 15 0 12 16 15 86 15 64 0 85
-3 82 -12z m182 -44 l0 -56 34 26 c19 14 43 26 53 26 13 -1 8 -10 -22 -35
l-40 -34 38 -38 c20 -22 37 -42 37 -46 0 -17 -27 -4 -62 30 l-38 37 0 -38 c0
-26 -4 -36 -12 -34 -9 3 -14 37 -16 111 -2 91 0 107 13 107 12 0 15 -12 15
-56z m1450 41 c0 -11 -12 -15 -45 -15 -43 0 -45 -1 -45 -30 0 -29 2 -30 45
-30 33 0 45 -4 45 -15 0 -11 -12 -15 -45 -15 -45 0 -45 0 -45 -35 0 -35 0 -35
45 -35 33 0 45 -4 45 -15 0 -12 -13 -15 -60 -15 l-60 0 0 110 0 110 60 0 c47
0 60 -3 60 -15z m827 0 c22 -16 37 -55 21 -55 -6 0 -21 11 -34 25 -26 28 -42
31 -69 11 -27 -19 -13 -40 36 -55 57 -17 79 -37 79 -72 0 -80 -147 -74 -163 7
-6 34 14 30 35 -6 13 -22 24 -30 45 -30 72 1 71 46 -2 73 -62 23 -75 34 -75
63 0 46 81 71 127 39z m193 0 c0 -11 -12 -15 -45 -15 -43 0 -45 -1 -45 -30 0
-29 2 -30 45 -30 33 0 45 -4 45 -15 0 -11 -12 -15 -45 -15 -45 0 -45 0 -45
-35 0 -35 0 -35 45 -35 33 0 45 -4 45 -15 0 -12 -13 -15 -60 -15 l-60 0 0 110
0 110 60 0 c47 0 60 -3 60 -15z m174 -87 c40 -113 41 -118 25 -118 -5 0 -17
16 -25 35 -13 33 -17 35 -60 35 -42 0 -46 -2 -60 -35 -14 -35 -34 -47 -34 -21
0 7 16 57 36 110 31 82 40 96 59 96 19 0 27 -14 59 -102z m131 20 c15 -46 31
-86 34 -91 4 -4 20 33 36 83 25 79 32 90 52 90 23 0 23 -2 23 -111 0 -84 -3
-110 -12 -107 -9 3 -14 32 -17 84 l-3 79 -27 -80 c-22 -62 -32 -81 -48 -83
-18 -3 -25 9 -51 85 l-30 88 -1 -88 c-1 -66 -4 -88 -13 -85 -9 3 -14 37 -16
111 l-3 107 25 0 c22 0 27 -9 51 -82z m393 66 c28 -19 29 -68 2 -91 -19 -17
-19 -17 5 -61 29 -52 29 -52 11 -52 -8 0 -26 20 -40 45 -20 34 -33 45 -51 45
-23 0 -25 -4 -25 -46 0 -32 -4 -44 -12 -42 -9 3 -14 37 -16 111 l-3 107 53 0
c32 0 62 -6 76 -16z m832 -88 c0 -70 -4 -107 -12 -112 -6 -4 -14 -2 -16 4 -2
8 -9 9 -23 2 -44 -24 -99 17 -99 75 0 58 47 93 98 74 20 -8 22 -5 22 26 0 24
5 35 15 35 12 0 15 -18 15 -104z m1164 83 c55 -43 20 -109 -59 -109 l-45 0 0
-46 c0 -32 -4 -44 -12 -42 -9 3 -14 37 -16 111 l-3 107 54 0 c40 0 61 -6 81
-21z m426 1 c0 -11 -7 -20 -15 -20 -8 0 -15 9 -15 20 0 11 7 20 15 20 8 0 15
-9 15 -20z m220 0 c0 -11 -7 -20 -15 -20 -8 0 -15 9 -15 20 0 11 7 20 15 20 8
0 15 -9 15 -20z m720 0 c0 -11 -7 -20 -15 -20 -8 0 -15 9 -15 20 0 11 7 20 15
20 8 0 15 -9 15 -20z m390 -15 c0 -32 2 -34 23 -26 16 6 32 5 48 -3 22 -10 24
-19 27 -85 2 -56 0 -72 -10 -69 -8 3 -15 29 -18 69 -4 53 -8 64 -24 67 -29 6
-46 -25 -46 -85 0 -29 -4 -53 -10 -53 -6 0 -10 43 -10 110 0 67 4 110 10 110
6 0 10 -16 10 -35z m469 -57 l51 -93 0 93 c0 54 4 92 10 92 6 0 10 -43 10
-110 0 -103 -1 -110 -20 -110 -15 0 -30 21 -63 86 l-42 85 -5 -82 c-3 -53 -9
-84 -17 -87 -10 -3 -13 23 -13 107 0 103 1 111 19 111 14 0 33 -25 70 -92z
m901 36 l0 -56 34 26 c19 14 43 26 53 26 13 -1 8 -10 -22 -35 l-40 -34 38 -38
c20 -22 37 -42 37 -46 0 -17 -27 -4 -62 30 l-38 37 0 -38 c0 -26 -4 -36 -12
-34 -9 3 -14 37 -16 111 -2 91 0 107 13 107 12 0 15 -12 15 -56z m-2790 16 c0
-13 7 -20 20 -20 11 0 20 -4 20 -10 0 -5 -9 -10 -20 -10 -18 0 -20 -7 -20 -55
0 -48 2 -55 20 -55 11 0 20 -5 20 -10 0 -17 -27 -22 -49 -10 -18 9 -21 20 -21
70 0 57 -1 60 -24 60 -40 0 -56 -25 -56 -86 0 -30 -4 -54 -10 -54 -6 0 -10 33
-10 79 0 69 2 80 18 80 9 0 32 1 50 1 25 1 32 6 32 21 0 10 7 19 15 19 8 0 15
-9 15 -20z m710 0 c0 -13 7 -20 20 -20 11 0 20 -4 20 -10 0 -5 -9 -10 -20 -10
-18 0 -20 -7 -20 -55 0 -48 2 -55 20 -55 11 0 20 -7 20 -15 0 -20 -34 -19 -54
1 -11 10 -16 34 -16 70 0 41 -4 54 -15 54 -8 0 -15 5 -15 10 0 6 6 10 14 10 7
0 16 9 19 20 3 11 10 20 16 20 6 0 11 -9 11 -20z m630 0 c0 -13 7 -20 20 -20
11 0 20 -4 20 -10 0 -5 -9 -10 -20 -10 -18 0 -20 -7 -20 -55 0 -48 2 -55 20
-55 11 0 20 -5 20 -10 0 -17 -27 -22 -49 -10 -18 9 -21 20 -21 70 0 47 -3 60
-15 60 -8 0 -15 5 -15 10 0 6 7 10 15 10 8 0 15 9 15 20 0 11 7 20 15 20 8 0
15 -9 15 -20z m863 0 c4 -15 14 -20 40 -20 34 0 35 -2 47 -50 7 -28 15 -52 19
-55 5 -2 13 20 20 50 11 47 16 55 35 55 19 0 25 -9 38 -62 l15 -63 18 63 c11
36 24 62 32 62 17 0 16 -12 -10 -90 -17 -50 -26 -65 -42 -65 -15 0 -22 12 -34
60 l-15 60 -14 -50 c-20 -76 -21 -77 -39 -73 -12 2 -25 26 -41 74 -21 66 -25
71 -47 66 -23 -4 -25 -9 -25 -54 0 -41 3 -51 20 -55 11 -3 20 -12 20 -19 0
-17 -14 -18 -41 -4 -15 9 -19 22 -19 70 0 47 -3 60 -15 60 -8 0 -15 4 -15 9 0
5 7 11 15 15 8 3 15 12 15 21 0 22 17 18 23 -5z m-17027 -46 c24 -35 14 -93
-19 -118 -23 -17 -32 -19 -57 -9 -30 11 -30 11 -30 -23 0 -19 -4 -34 -10 -34
-6 0 -10 42 -10 106 0 90 2 105 15 100 8 -3 25 -2 37 3 31 11 57 3 74 -25z
m177 -7 c29 -37 16 -92 -25 -113 -23 -12 -36 -13 -54 -5 -21 9 -23 7 -26 -21
-2 -17 -9 -33 -15 -36 -10 -3 -13 22 -13 101 l0 106 30 -1 c17 -1 33 2 36 5
11 10 48 -9 67 -36z m1118 15 c-29 -10 -41 -35 -41 -88 0 -30 -4 -54 -10 -54
-6 0 -10 34 -10 81 0 61 3 80 13 76 6 -2 21 -1 32 3 12 4 22 3 24 -3 2 -6 -1
-13 -8 -15z m1197 12 c19 -13 22 -24 22 -85 0 -39 -4 -69 -10 -69 -5 0 -10 24
-10 53 0 60 -17 91 -46 85 -16 -3 -20 -14 -24 -67 -3 -39 -10 -66 -17 -69 -10
-3 -13 17 -13 78 0 76 2 82 19 77 10 -2 25 -1 32 4 19 12 21 11 47 -7z m160
-6 c6 -6 12 -17 12 -24 0 -19 -26 -18 -34 2 -3 9 -15 14 -28 12 -37 -5 -32
-26 11 -38 47 -12 67 -40 51 -70 -21 -40 -101 -33 -115 10 -10 32 4 38 24 11
12 -15 25 -22 41 -19 38 5 34 25 -7 38 -50 17 -65 29 -61 54 6 39 68 53 106
24z m842 9 c0 -8 -11 -19 -25 -25 -23 -11 -25 -17 -25 -73 0 -44 -3 -60 -12
-57 -9 3 -14 31 -16 81 l-3 76 31 -1 c17 -1 33 2 37 5 10 10 13 8 13 -6z m371
1 l29 1 0 -78 c0 -91 -21 -131 -69 -131 -32 0 -71 25 -71 46 0 19 26 18 34 -1
7 -20 62 -20 70 1 10 27 7 39 -6 26 -16 -16 -60 -15 -81 1 -26 18 -33 81 -14
111 16 23 52 37 71 28 5 -3 22 -5 37 -4z m173 -17 c9 -9 17 -28 18 -42 3 -23
0 -24 -55 -27 -53 -3 -56 -4 -47 -23 13 -23 47 -25 72 -2 10 9 21 13 25 9 12
-11 -12 -40 -41 -50 -54 -20 -110 57 -83 113 23 48 78 59 111 22z m924 6 c15
-12 17 -147 2 -147 -5 0 -10 5 -10 10 0 6 -7 6 -18 -1 -27 -17 -71 -3 -84 27
-11 23 -9 29 11 45 13 11 37 19 53 19 23 0 29 4 26 18 -5 25 -44 27 -58 3 -14
-28 -32 -27 -28 1 6 40 68 55 106 25z m185 -20 c29 -37 16 -92 -25 -113 -23
-12 -36 -13 -54 -5 -21 9 -23 7 -26 -22 -2 -18 -7 -31 -13 -30 -6 2 -11 47
-13 102 l-3 100 31 -1 c17 -1 33 2 36 5 11 10 48 -9 67 -36z m2057 5 c33 -41
20 -100 -27 -121 -36 -16 -51 -14 -78 14 -33 32 -34 84 -2 112 41 38 75 37
107 -5z m346 2 c24 -35 14 -93 -19 -118 -23 -17 -32 -19 -57 -9 -30 11 -30 11
-30 -23 0 -19 -4 -34 -10 -34 -6 0 -10 42 -10 106 0 90 2 105 15 100 8 -3 25
-2 37 3 31 11 57 3 74 -25z m712 22 c54 28 85 -8 80 -93 -4 -84 -26 -81 -30 4
-3 62 -5 68 -25 71 -28 4 -43 -29 -43 -94 0 -24 -4 -44 -10 -44 -6 0 -10 26
-10 58 0 60 -11 82 -41 82 -22 0 -29 -20 -29 -87 0 -39 -4 -54 -12 -51 -9 3
-14 31 -16 81 l-3 76 31 -1 c17 -1 33 2 37 6 3 3 16 0 27 -7 17 -11 26 -11 44
-1z m245 -18 c21 -25 22 -76 2 -105 -18 -26 -59 -37 -85 -23 -18 10 -20 7 -20
-25 0 -25 -4 -35 -12 -33 -9 3 -14 36 -16 106 l-3 101 31 -1 c17 -1 33 2 37 6
10 10 46 -4 66 -26z m1041 3 c9 -9 17 -28 18 -42 3 -23 0 -24 -55 -27 -53 -3
-56 -4 -47 -23 13 -23 47 -25 72 -2 10 9 21 13 25 9 12 -11 -12 -40 -41 -50
-54 -20 -110 57 -83 113 23 48 78 59 111 22z m167 -3 c12 -23 8 -128 -6 -128
-5 0 -12 28 -15 62 -5 57 -7 63 -29 66 -32 5 -41 -12 -41 -81 0 -42 -3 -58
-12 -55 -9 3 -14 31 -16 81 l-3 76 31 -1 c17 -1 33 1 36 4 10 11 45 -4 55 -24z
m147 4 c6 -9 12 -19 12 -24 0 -14 -28 -9 -34 7 -7 18 -56 20 -56 2 0 -7 19
-21 43 -32 23 -11 44 -28 45 -38 5 -25 -26 -57 -55 -57 -24 0 -73 40 -73 60 0
18 28 11 35 -10 4 -14 15 -20 36 -20 41 0 36 31 -7 42 -58 15 -72 61 -26 84
28 14 62 8 80 -14z m1059 -13 c16 -31 17 -116 1 -125 -6 -4 -14 -2 -16 4 -2 8
-8 8 -22 0 -31 -20 -74 1 -78 37 -4 36 18 55 66 55 27 0 33 3 28 16 -3 9 -6
18 -6 20 0 15 -50 0 -63 -18 -19 -29 -34 -16 -19 16 19 42 87 39 109 -5z m251
18 c7 -6 12 -35 12 -79 0 -51 -3 -69 -12 -66 -8 3 -15 30 -18 69 -4 53 -8 64
-24 67 -29 6 -46 -25 -46 -85 0 -29 -4 -53 -10 -53 -6 0 -10 34 -10 81 0 61 3
80 13 76 6 -2 21 -1 32 3 21 8 42 3 63 -13z m1487 -10 c8 -12 15 -32 15 -44 0
-21 -4 -23 -55 -23 -30 0 -55 -4 -55 -8 0 -30 66 -44 76 -17 7 17 34 21 34 5
0 -19 -40 -50 -65 -50 -52 0 -90 72 -64 119 29 51 85 59 114 18z m392 -8 c16
-31 17 -116 1 -125 -6 -4 -14 -2 -16 4 -2 8 -8 8 -22 0 -31 -20 -74 1 -78 37
-4 36 18 55 66 55 27 0 33 3 28 16 -3 9 -6 18 -6 20 0 15 -50 0 -63 -18 -19
-29 -34 -16 -19 16 19 42 87 39 109 -5z m411 13 c6 -9 12 -19 12 -24 0 -14
-28 -9 -34 7 -7 18 -56 20 -56 2 0 -7 19 -21 43 -32 23 -11 44 -28 45 -38 5
-25 -26 -57 -55 -57 -24 0 -73 40 -73 60 0 18 28 11 35 -10 4 -14 15 -20 36
-20 41 0 36 31 -7 42 -58 15 -72 61 -26 84 28 14 62 8 80 -14z m1180 0 c6 -9
12 -43 12 -76 l0 -61 -47 -2 c-52 -2 -83 16 -83 48 0 24 38 49 73 49 22 0 28
4 25 18 -5 26 -55 29 -63 3 -9 -28 -27 -27 -23 1 6 43 76 56 106 20z m418 6
c17 -13 24 -48 10 -48 -6 0 -17 9 -24 21 -30 48 -95 -8 -73 -63 8 -22 17 -28
40 -28 21 0 32 6 36 20 7 22 20 26 30 10 3 -5 -6 -22 -20 -36 -20 -20 -32 -24
-53 -19 -40 9 -64 38 -65 78 -2 68 68 107 119 65z m240 -14 c24 -35 14 -93
-19 -118 -23 -17 -32 -19 -57 -9 -30 11 -30 11 -30 -23 0 -19 -4 -34 -10 -34
-6 0 -10 42 -10 106 0 90 2 105 15 100 8 -3 25 -2 37 3 31 11 57 3 74 -25z
m152 8 c6 -9 12 -43 12 -76 l0 -61 -47 -2 c-52 -2 -83 16 -83 48 0 24 38 49
73 49 22 0 28 4 25 18 -5 26 -55 29 -63 3 -9 -28 -27 -27 -23 1 6 43 76 56
106 20z m540 12 c19 -13 22 -24 22 -85 0 -39 -4 -69 -10 -69 -5 0 -10 24 -10
53 0 60 -17 91 -46 85 -16 -3 -20 -14 -24 -67 -3 -39 -10 -66 -17 -69 -10 -3
-13 17 -13 78 0 76 2 82 19 77 10 -2 25 -1 32 4 19 12 21 11 47 -7z m1452 -22
c33 -41 20 -100 -27 -121 -36 -16 -51 -14 -78 14 -43 42 -29 113 26 133 32 12
56 4 79 -26z m111 10 c-29 -10 -41 -35 -41 -88 0 -30 -4 -54 -10 -54 -6 0 -10
34 -10 81 0 61 3 80 13 76 6 -2 21 -1 32 3 12 4 22 3 24 -3 2 -6 -1 -13 -8
-15z m-17821 -30 c0 -55 18 -86 46 -80 16 3 19 13 22 66 2 46 7 62 17 62 12 0
15 -16 15 -78 l0 -77 -42 -2 c-63 -2 -78 16 -78 94 0 35 4 63 10 63 6 0 10
-22 10 -48z m584 -9 c11 -29 23 -53 27 -53 3 0 13 23 23 50 18 49 32 68 43 56
8 -7 -56 -176 -73 -195 -19 -21 -26 -8 -14 24 6 15 7 32 2 39 -5 6 -21 39 -35
74 -23 53 -24 63 -11 60 9 -2 26 -27 38 -55z m766 37 c31 -31 27 -93 -6 -119
-34 -27 -57 -26 -89 2 -33 28 -38 86 -10 117 24 26 78 27 105 0z m130 11 c0
-4 -11 -13 -24 -19 -22 -10 -25 -19 -28 -68 -2 -35 -8 -59 -15 -62 -10 -3 -13
17 -13 76 l0 80 40 0 c22 0 40 -3 40 -7z m220 -11 c31 -31 27 -93 -6 -119 -34
-27 -57 -26 -89 2 -33 28 -38 86 -10 117 24 26 78 27 105 0z m78 -42 l18 -63
15 60 c13 53 18 60 39 60 17 0 26 -6 28 -20 2 -11 8 -38 14 -60 l11 -40 17 60
c11 38 22 61 33 63 15 3 15 -1 0 -50 -8 -29 -19 -64 -23 -78 -4 -15 -15 -26
-27 -28 -18 -3 -23 5 -34 52 -7 31 -15 56 -19 56 -4 0 -12 -25 -19 -55 -10
-44 -16 -55 -32 -55 -22 0 -22 0 -48 93 -16 55 -17 67 -6 67 9 0 22 -25 33
-62z m532 42 c31 -31 27 -93 -6 -119 -34 -27 -57 -26 -89 2 -33 28 -38 86 -10
117 24 26 78 27 105 0z m300 0 c11 -11 20 -31 20 -45 0 -24 -3 -25 -55 -25
-30 0 -55 -4 -55 -8 0 -30 66 -44 76 -17 7 17 34 21 34 5 0 -19 -40 -50 -65
-50 -38 0 -75 42 -75 85 0 44 29 75 70 75 17 0 39 -9 50 -20z m1198 -57 c-2
-50 -7 -78 -15 -81 -10 -3 -13 17 -13 77 0 66 3 81 15 81 13 0 15 -13 13 -77z
m1110 15 l18 -63 15 60 c13 53 18 60 39 60 17 0 26 -6 28 -20 2 -11 8 -38 14
-60 l11 -40 17 60 c10 37 23 61 32 63 14 3 13 -8 -7 -75 -17 -62 -26 -79 -43
-81 -17 -3 -22 5 -33 52 -7 31 -15 56 -19 56 -4 0 -12 -25 -19 -55 -10 -44
-16 -55 -32 -55 -22 0 -22 0 -48 93 -16 55 -17 67 -6 67 9 0 22 -25 33 -62z
m2717 42 c28 -31 23 -89 -10 -117 -32 -28 -55 -29 -89 -2 -33 26 -37 88 -6
119 27 27 81 26 105 0z m1275 -61 c0 -60 -3 -80 -12 -77 -9 3 -14 31 -16 81
-2 64 0 77 13 77 12 0 15 -15 15 -81z m605 61 c28 -31 23 -89 -10 -117 -32
-28 -55 -29 -89 -2 -33 26 -37 88 -6 119 27 27 81 26 105 0z m1795 11 c0 -4
-11 -13 -24 -19 -22 -10 -25 -19 -28 -68 -2 -35 -8 -59 -15 -62 -10 -3 -13 17
-13 76 l0 80 40 0 c22 0 40 -3 40 -7z m1688 -53 l18 -63 15 60 c13 53 18 60
39 60 17 0 26 -6 28 -20 2 -11 8 -38 14 -60 l11 -40 17 60 c11 38 22 61 33 63
15 3 15 -1 0 -50 -8 -29 -19 -64 -23 -78 -4 -15 -15 -26 -27 -28 -18 -3 -23 5
-34 52 -7 31 -15 56 -19 56 -4 0 -12 -25 -19 -55 -10 -44 -16 -55 -32 -55 -22
0 -22 0 -48 93 -16 55 -17 67 -6 67 9 0 22 -25 33 -62z m442 53 c0 -4 -11 -13
-24 -19 -22 -10 -25 -19 -28 -67 -5 -83 -23 -72 -26 16 l-3 77 41 0 c22 0 40
-3 40 -7z m1738 -68 c-2 -50 -7 -78 -15 -81 -10 -3 -13 17 -13 77 0 66 3 81
15 81 13 0 15 -13 13 -77z m220 0 c-2 -50 -7 -78 -15 -81 -10 -3 -13 17 -13
77 0 66 3 81 15 81 13 0 15 -13 13 -77z m572 57 c11 -11 20 -31 20 -45 0 -24
-3 -25 -55 -25 -30 0 -55 -4 -55 -8 0 -30 66 -44 76 -17 7 17 34 21 34 5 0
-19 -40 -50 -65 -50 -38 0 -75 42 -75 85 0 44 29 75 70 75 17 0 39 -9 50 -20z
m150 -61 c0 -60 -3 -80 -12 -77 -9 3 -14 31 -16 81 -2 64 0 77 13 77 12 0 15
-15 15 -81z m626 73 c18 -12 36 -52 30 -68 -4 -10 -22 -14 -56 -14 -44 0 -51
-3 -48 -17 4 -25 56 -30 72 -7 7 9 18 15 25 13 20 -7 -27 -59 -53 -59 -41 0
-76 37 -76 79 0 51 23 81 63 81 18 0 37 -4 43 -8z m464 -12 c11 -11 20 -31 20
-45 0 -24 -3 -25 -55 -25 -30 0 -55 -4 -55 -8 0 -30 66 -44 76 -17 7 17 34 21
34 5 0 -19 -40 -50 -65 -50 -38 0 -75 42 -75 85 0 44 29 75 70 75 17 0 39 -9
50 -20z m-13575 -306 c16 -6 45 -54 45 -74 0 -20 -20 -10 -34 19 -18 33 -38
43 -72 35 -27 -7 -54 -50 -54 -87 0 -36 36 -77 68 -77 33 0 45 8 61 38 14 27
31 29 31 4 0 -24 -35 -60 -65 -68 -83 -21 -158 94 -108 166 9 14 24 30 33 37
16 13 68 17 95 7z m805 -29 c0 -32 2 -34 23 -26 54 20 83 -23 75 -114 -5 -65
-28 -56 -28 12 0 69 -9 86 -41 81 -22 -3 -24 -9 -29 -66 -8 -102 -25 -78 -28
41 -2 91 0 107 13 107 11 0 15 -10 15 -35z m320 15 c0 -11 -7 -20 -15 -20 -8
0 -15 9 -15 20 0 11 7 20 15 20 8 0 15 -9 15 -20z m-970 -48 c0 -4 -10 -12
-22 -17 -19 -8 -24 -20 -28 -69 -3 -35 -10 -61 -17 -64 -10 -3 -13 17 -13 78
0 76 2 82 19 77 10 -2 25 -1 32 4 13 8 29 3 29 -9z m278 -10 c6 -9 12 -19 12
-24 0 -14 -28 -9 -34 7 -7 18 -56 20 -56 2 0 -7 19 -21 43 -32 23 -11 44 -28
45 -38 5 -25 -26 -57 -55 -57 -24 0 -73 40 -73 60 0 18 28 11 35 -10 4 -14 15
-20 36 -20 41 0 36 31 -7 42 -58 15 -72 61 -26 84 28 14 62 8 80 -14z m140 6
c6 -6 12 -17 12 -24 0 -19 -26 -18 -34 2 -3 9 -15 14 -28 12 -37 -5 -32 -26
11 -38 47 -12 67 -40 51 -70 -21 -40 -101 -33 -115 10 -10 32 4 38 24 11 12
-15 25 -22 41 -19 38 5 34 25 -7 38 -50 17 -65 29 -61 54 6 39 68 53 106 24z
m160 -1 c13 -10 17 -47 4 -47 -4 0 -13 9 -20 21 -30 48 -95 -8 -73 -63 8 -22
17 -28 40 -28 21 0 32 6 36 20 7 22 20 26 30 10 3 -5 -6 -22 -20 -36 -20 -20
-32 -24 -53 -19 -40 9 -64 38 -65 78 -2 68 68 106 121 64z m310 -5 c6 -9 12
-43 12 -76 l0 -61 -47 -2 c-52 -2 -83 16 -83 48 0 24 38 49 73 49 22 0 28 4
25 18 -5 26 -55 29 -63 3 -9 -28 -27 -27 -23 1 6 43 76 56 106 20z m233 -10
c13 -35 7 -124 -8 -130 -10 -3 -13 13 -13 55 0 69 -9 86 -41 81 -22 -3 -24 -9
-29 -66 -3 -34 -9 -62 -15 -62 -5 0 -11 33 -13 74 l-3 75 31 -1 c17 -1 33 1
36 4 12 13 46 -6 55 -30z m-996 8 c28 -31 23 -89 -10 -117 -32 -28 -55 -29
-89 -2 -33 26 -37 88 -6 119 27 27 81 26 105 0z m843 -57 c-2 -50 -7 -78 -15
-81 -10 -3 -13 17 -13 77 0 66 3 81 15 81 13 0 15 -13 13 -77z"/>
<path d="M1343 13119 c-74 -22 -107 -115 -61 -174 18 -23 72 -55 93 -55 11 0
5 96 -7 108 -20 20 7 40 32 24 26 -16 110 -16 110 1 0 19 -37 75 -57 85 -31
16 -77 21 -110 11z"/>
<path d="M1423 12911 c5 -57 3 -71 -8 -71 -8 0 -17 5 -20 10 -3 6 -28 10 -56
10 -42 0 -49 -3 -49 -20 0 -11 13 -34 28 -51 24 -27 37 -33 83 -36 87 -7 139
38 139 118 0 36 -53 95 -94 105 l-29 7 6 -72z"/>
<path d="M18318 13020 l-16 -50 35 0 c32 0 35 2 29 25 -8 32 -25 75 -29 75 -2
0 -10 -22 -19 -50z"/>
<path d="M8060 13020 c0 -30 2 -31 38 -28 32 3 37 6 37 28 0 22 -5 25 -37 28
-36 3 -38 2 -38 -28z"/>
<path d="M8060 12910 c0 -40 0 -40 40 -40 29 0 42 5 50 19 19 37 -7 60 -67 61
-20 0 -23 -5 -23 -40z"/>
<path d="M9890 13020 c0 -27 3 -30 34 -30 38 0 60 19 50 44 -4 11 -18 16 -45
16 -37 0 -39 -2 -39 -30z"/>
<path d="M9897 12943 c-4 -3 -7 -21 -7 -40 0 -30 3 -33 31 -33 41 0 69 16 69
41 0 27 -73 53 -93 32z"/>
<path d="M11410 12960 c0 -99 4 -103 66 -80 38 15 53 38 54 83 0 51 -35 87
-85 87 l-35 0 0 -90z"/>
<path d="M17270 12931 c-29 -8 -34 -34 -7 -39 21 -4 47 15 47 34 0 15 -3 15
-40 5z"/>
<path d="M18532 12998 c-17 -17 -15 -83 2 -98 24 -19 60 -8 70 23 19 52 -37
110 -72 75z"/>
<path d="M18742 12998 c-17 -17 -15 -83 2 -98 24 -19 60 -8 70 23 19 52 -37
110 -72 75z"/>
<path d="M2250 12934 c-6 -14 -10 -27 -10 -30 0 -2 25 -4 55 -4 30 0 55 2 55
4 0 3 -4 16 -10 30 -8 21 -16 26 -45 26 -29 0 -37 -5 -45 -26z"/>
<path d="M2550 12835 c-25 -31 9 -63 55 -51 20 5 25 13 25 36 0 27 -3 30 -34
30 -18 0 -39 -7 -46 -15z"/>
<path d="M3525 12946 c-3 -9 -7 -23 -10 -31 -3 -12 6 -15 49 -15 54 0 54 0 47
28 -6 22 -14 28 -44 30 -27 2 -39 -1 -42 -12z"/>
<path d="M7770 12970 c-10 -19 -8 -20 35 -20 46 0 54 7 33 28 -19 19 -56 14
-68 -8z"/>
<path d="M8293 12913 c-32 -6 -31 -43 0 -43 25 0 47 17 47 37 0 13 -6 14 -47
6z"/>
<path d="M10200 12975 c-16 -19 -17 -82 -2 -97 5 -5 22 -8 38 -6 21 2 31 11
38 31 20 55 -40 112 -74 72z"/>
<path d="M10400 12971 c-12 -23 -13 -61 -2 -77 13 -21 49 -25 66 -9 33 33 13
105 -29 105 -14 0 -29 -8 -35 -19z"/>
<path d="M10465 12851 c-3 -6 -20 -11 -36 -11 -41 0 -33 -24 8 -28 25 -2 33 1
38 18 7 24 1 38 -10 21z"/>
<path d="M11656 12975 c-19 -20 -21 -64 -3 -89 21 -29 69 -18 78 18 16 60 -36
109 -75 71z"/>
<path d="M13383 12913 c-32 -6 -31 -43 0 -43 25 0 47 17 47 37 0 13 -6 14 -47
6z"/>
<path d="M14860 12975 c-16 -19 -17 -82 -2 -97 5 -5 22 -8 38 -6 21 2 31 11
38 31 20 55 -40 112 -74 72z"/>
<path d="M15230 12975 c-16 -19 -17 -82 -2 -97 5 -5 22 -8 38 -6 21 2 31 11
38 31 20 55 -40 112 -74 72z"/>
<path d="M9041 8467 c-29 -15 -58 -53 -66 -88 l-6 -26 142 -6 c78 -4 145 -5
147 -2 13 13 -33 98 -62 116 -36 22 -118 25 -155 6z"/>
<path d="M2516 8480 c-50 -16 -96 -73 -96 -120 0 -19 5 -20 146 -20 l147 0 -7
32 c-8 39 -29 73 -59 92 -29 20 -95 27 -131 16z"/>
<path d="M4095 8483 c-72 -18 -118 -99 -118 -208 0 -131 55 -205 154 -205 89
0 146 65 156 179 14 152 -77 263 -192 234z"/>
<path d="M5746 8480 c-38 -12 -66 -38 -82 -77 -27 -64 -29 -63 132 -63 l147 0
-7 32 c-8 39 -29 73 -59 92 -29 20 -95 27 -131 16z"/>
<path d="M7084 8479 c-123 -36 -156 -269 -54 -371 34 -34 43 -38 90 -38 108 0
160 68 160 206 -1 62 -5 88 -24 124 -34 67 -104 99 -172 79z"/>
<path d="M18585 7820 c-3 -6 1 -7 9 -4 18 7 21 14 7 14 -6 0 -13 -4 -16 -10z"/>
<path d="M9869 7121 c-60 -19 -81 -44 -104 -118 l-6 -23 150 0 c114 0 151 3
151 13 -1 26 -39 96 -62 111 -29 19 -95 28 -129 17z"/>
<path d="M3125 7123 c-73 -20 -118 -99 -118 -208 0 -131 55 -205 154 -205 99
0 154 74 154 205 0 67 -4 87 -25 124 -14 24 -36 53 -50 63 -27 20 -82 30 -115
21z"/>
<path d="M9000 7025 l0 -308 96 6 c184 12 268 81 293 238 11 66 3 159 -18 212
-20 52 -63 96 -119 124 -47 23 -73 28 -154 31 l-98 4 0 -307z"/>
<path d="M2422 7110 c-60 -27 -92 -96 -91 -195 1 -137 53 -205 157 -205 50 0
58 3 92 38 47 47 64 104 58 194 -7 88 -41 149 -98 172 -51 20 -65 20 -118 -4z"/>
<path d="M3796 7120 c-50 -16 -96 -73 -96 -120 0 -19 5 -20 146 -20 l147 0 -7
32 c-8 39 -29 73 -59 92 -29 20 -95 27 -131 16z"/>
<path d="M6880 6880 c-139 -18 -180 -38 -180 -91 0 -48 39 -79 100 -79 62 0
105 20 125 60 18 35 32 121 19 119 -5 -1 -34 -5 -64 -9z"/>
<path d="M7724 7116 c-69 -31 -112 -130 -101 -232 11 -109 70 -174 156 -174
100 0 155 72 155 205 1 67 -3 87 -24 124 -14 24 -37 53 -51 63 -34 25 -96 32
-135 14z"/>
<path d="M1476 5674 c-182 -44 -320 -195 -349 -383 -37 -239 133 -477 372
-521 35 -7 1923 -10 5520 -10 4877 0 5473 2 5526 15 136 36 250 129 308 252
125 268 -26 580 -314 648 -57 13 -689 15 -5534 14 -4689 -1 -5478 -3 -5529
-15z m5007 -354 c34 -40 40 -62 28 -108 -15 -55 -43 -77 -98 -77 -38 0 -49 5
-68 30 -39 48 -37 116 7 162 33 36 98 32 131 -7z m187 20 c46 -25 48 -88 4
-109 -14 -6 -40 -11 -59 -11 -35 0 -35 0 -35 -45 0 -33 -4 -45 -15 -45 -12 0
-15 19 -15 110 l0 110 51 0 c28 0 59 -5 69 -10z m190 -5 c0 -11 -12 -15 -50
-15 -49 0 -50 -1 -50 -30 0 -29 1 -30 50 -30 38 0 50 -4 50 -15 0 -11 -12 -15
-50 -15 l-50 0 0 -35 0 -35 50 0 c38 0 50 -4 50 -15 0 -13 -11 -15 -62 -13
l-63 3 -3 108 -3 107 66 0 c51 0 65 -3 65 -15z m132 -77 l47 -93 0 93 c1 76 4
92 16 92 13 0 15 -16 13 -107 -3 -99 -5 -108 -23 -111 -16 -2 -29 15 -65 83
l-45 86 -5 -82 c-3 -53 -9 -84 -17 -87 -10 -3 -13 23 -13 107 0 109 0 111 23
111 18 0 31 -17 69 -92z m318 10 c17 -46 34 -95 37 -110 8 -40 -14 -35 -31 7
-14 33 -18 35 -60 35 -43 0 -47 -2 -60 -35 -8 -19 -20 -35 -25 -35 -16 0 -15
5 25 118 32 89 40 102 59 102 20 0 28 -13 55 -82z m198 66 c15 -10 22 -25 22
-49 0 -42 -29 -65 -82 -65 -36 0 -37 -1 -40 -42 -2 -23 -9 -43 -15 -46 -10 -3
-13 23 -13 107 l0 111 53 0 c31 0 61 -6 75 -16z m172 6 c46 -25 48 -88 4 -109
-14 -6 -40 -11 -59 -11 -35 0 -35 0 -35 -45 0 -33 -4 -45 -15 -45 -12 0 -15
19 -15 110 l0 110 51 0 c28 0 59 -5 69 -10z"/>
<path d="M6393 5319 c-28 -10 -43 -39 -43 -83 0 -84 101 -105 128 -27 24 68
-26 132 -85 110z"/>
<path d="M6580 5279 l0 -42 37 6 c76 13 78 77 3 77 l-40 0 0 -41z"/>
<path d="M7238 5275 l-17 -45 35 0 c32 0 35 2 28 23 -3 12 -12 32 -18 45 -11
21 -12 20 -28 -23z"/>
<path d="M7410 5281 c0 -45 13 -51 65 -31 21 8 26 16 23 38 -3 24 -7 27 -45
30 l-43 3 0 -40z"/>
<path d="M7590 5279 l0 -42 37 6 c76 13 78 77 3 77 l-40 0 0 -41z"/>
<path d="M2166 1013 c-3 -4 -6 -15 -6 -25 0 -24 33 -21 38 3 3 17 -21 33 -32
22z"/>
<path d="M2142 918 c-7 -7 -12 -22 -12 -35 0 -26 39 -41 72 -26 20 9 20 9 -7
41 -30 35 -35 38 -53 20z"/>
<path d="M2410 981 c0 -27 3 -31 28 -31 36 0 55 13 50 36 -2 14 -13 20 -41 22
-35 3 -37 2 -37 -27z"/>
<path d="M2410 885 c0 -32 2 -35 29 -35 44 0 61 10 61 35 0 25 -17 35 -61 35
-27 0 -29 -3 -29 -35z"/>
<path d="M4860 980 c0 -30 2 -31 38 -28 32 3 37 6 37 28 0 22 -5 25 -37 28
-36 3 -38 2 -38 -28z"/>
<path d="M4860 885 c0 -32 2 -35 29 -35 44 0 61 10 61 35 0 25 -17 35 -61 35
-27 0 -29 -3 -29 -35z"/>
<path d="M5204 935 c-32 -49 19 -110 62 -75 17 15 19 71 2 88 -19 19 -46 14
-64 -13z"/>
<path d="M5813 1004 c-8 -21 13 -42 28 -27 13 13 5 43 -11 43 -6 0 -13 -7 -17
-16z"/>
<path d="M5792 918 c-28 -28 -6 -68 39 -68 40 0 45 18 13 51 -31 33 -35 34
-52 17z"/>
<path d="M9326 1013 c-3 -4 -6 -15 -6 -25 0 -24 33 -21 38 3 3 17 -21 33 -32
22z"/>
<path d="M9302 918 c-7 -7 -12 -22 -12 -35 0 -26 39 -41 72 -26 20 9 20 9 -7
41 -30 35 -35 38 -53 20z"/>
<path d="M9589 965 l-17 -45 34 0 c19 0 34 4 34 9 0 9 -29 81 -33 81 -1 0 -9
-20 -18 -45z"/>
<path d="M13486 970 c-21 -52 -22 -50 18 -50 l35 0 -16 45 c-8 25 -16 45 -18
45 -1 0 -10 -18 -19 -40z"/>
<path d="M13990 976 c0 -34 2 -36 33 -36 43 0 59 12 55 41 -2 20 -9 24 -45 27
l-43 3 0 -35z"/>
<path d="M14810 941 c-24 -46 -6 -91 37 -91 39 0 58 64 27 94 -21 22 -51 20
-64 -3z"/>
<path d="M15980 970 c0 -36 3 -40 24 -40 40 0 76 18 76 38 0 28 -20 42 -62 42
-38 0 -38 0 -38 -40z"/>
<path d="M1504 935 c-32 -49 19 -110 62 -75 17 15 19 71 2 88 -19 19 -46 14
-64 -13z"/>
<path d="M1680 941 c-25 -48 -3 -96 42 -89 52 7 46 108 -6 108 -15 0 -30 -8
-36 -19z"/>
<path d="M5382 948 c-21 -21 -14 -66 12 -83 29 -19 54 -10 62 22 14 54 -38 97
-74 61z"/>
<path d="M5550 940 c-10 -19 -8 -20 35 -20 43 0 45 1 35 20 -6 12 -21 20 -35
20 -14 0 -29 -8 -35 -20z"/>
<path d="M6484 886 c-14 -11 -16 -18 -8 -26 18 -18 56 -8 65 18 7 19 5 22 -14
22 -13 0 -32 -6 -43 -14z"/>
<path d="M6650 941 c-25 -48 -3 -96 42 -89 52 7 46 108 -6 108 -15 0 -30 -8
-36 -19z"/>
<path d="M8710 941 c-25 -48 -3 -96 42 -89 52 7 46 108 -6 108 -15 0 -30 -8
-36 -19z"/>
<path d="M9054 935 c-32 -49 19 -110 62 -75 17 15 19 71 2 88 -19 19 -46 14
-64 -13z"/>
<path d="M10016 944 c-31 -30 -12 -94 27 -94 31 0 47 18 47 55 0 51 -41 73
-74 39z"/>
<path d="M11060 940 c-10 -19 -8 -20 35 -20 43 0 45 1 35 20 -6 12 -21 20 -35
20 -14 0 -29 -8 -35 -20z"/>
<path d="M12442 889 c-29 -11 -24 -33 8 -37 22 -4 50 19 50 40 0 10 -29 9 -58
-3z"/>
<path d="M14172 948 c-21 -21 -14 -28 29 -28 33 0 40 3 37 18 -4 21 -48 28
-66 10z"/>
<path d="M14572 889 c-29 -11 -24 -33 8 -37 22 -4 50 19 50 40 0 10 -29 9 -58
-3z"/>
<path d="M16168 889 c-26 -15 -22 -39 5 -39 25 0 47 17 47 37 0 15 -28 17 -52
2z"/>
<path d="M16804 935 c-32 -49 19 -110 62 -75 17 15 19 71 2 88 -19 19 -46 14
-64 -13z"/>
<path d="M16978 889 c-26 -15 -22 -39 5 -39 25 0 47 17 47 37 0 15 -28 17 -52
2z"/>
<path d="M18950 941 c-25 -48 -3 -96 42 -89 52 7 46 108 -6 108 -15 0 -30 -8
-36 -19z"/>
<path d="M2594 935 c-32 -49 19 -110 62 -75 17 15 19 71 2 88 -19 19 -46 14
-64 -13z"/>
<path d="M2944 935 c-32 -49 19 -110 62 -75 17 15 19 71 2 88 -19 19 -46 14
-64 -13z"/>
<path d="M3554 935 c-32 -49 19 -110 62 -75 17 15 19 71 2 88 -19 19 -46 14
-64 -13z"/>
<path d="M3862 948 c-21 -21 -13 -28 28 -28 22 0 40 4 40 8 0 14 -23 32 -40
32 -9 0 -21 -5 -28 -12z"/>
<path d="M8882 948 c-17 -17 -15 -73 2 -88 24 -19 58 -8 69 23 16 51 -37 99
-71 65z"/>
<path d="M10762 948 c-17 -17 -15 -73 2 -88 24 -19 58 -8 69 23 16 51 -37 99
-71 65z"/>
<path d="M17222 948 c-21 -21 -13 -28 28 -28 22 0 40 4 40 8 0 14 -23 32 -40
32 -9 0 -21 -5 -28 -12z"/>
<path d="M18007 953 c-19 -19 -5 -33 33 -33 41 0 49 7 28 28 -13 13 -50 16
-61 5z"/>
<path d="M18462 948 c-21 -21 -13 -28 28 -28 22 0 40 4 40 8 0 14 -23 32 -40
32 -9 0 -21 -5 -28 -12z"/>
<path d="M5938 509 c-26 -15 -22 -39 5 -39 25 0 47 17 47 37 0 15 -28 17 -52
2z"/>
<path d="M5162 568 c-17 -17 -15 -73 2 -88 24 -19 58 -8 69 23 16 51 -37 99
-71 65z"/>
</g>
</svg>
